<?xml version="1.0" encoding="utf-8"?>
<!-- Generator: Adobe Illustrator 16.0.4, SVG Export Plug-In . SVG Version: 6.00 Build 0)  -->
<!DOCTYPE svg PUBLIC "-//W3C//DTD SVG 1.1//EN" "http://www.w3.org/Graphics/SVG/1.1/DTD/svg11.dtd">
<svg version="1.1" id="Layer_1" xmlns="http://www.w3.org/2000/svg" xmlns:xlink="http://www.w3.org/1999/xlink" x="0px" y="0px"
	 width="300px" height="102.137px" viewBox="0 0 300 102.137" enable-background="new 0 0 300 102.137" xml:space="preserve">
<path fill="#FFFFFF" d="M97.629,50.863c0,25.779-20.901,46.681-46.682,46.681c-25.784,0-46.686-20.901-46.686-46.681
	c0-25.782,20.901-46.684,46.686-46.684C76.728,4.18,97.629,25.081,97.629,50.863z"/>
<g>
	<path fill="#002D5B" d="M115.804,24.56c-0.642,0-0.721,0-0.427-0.773l1.122-3.125c0.481-1.255,0.694-1.925,0.802-2.11h0.052
		c0.135,0.186,0.295,0.695,0.75,2.11l1.12,3.205c0.212,0.64,0.107,0.693-0.639,0.693H115.804z M118.93,25.761
		c0.747,0,0.826,0,1.094,0.721l1.255,3.634c0.348,1.148,0.268,1.309-0.695,1.412l-0.588,0.084c-0.157,0.16-0.131,0.638,0.083,0.773
		c0.936-0.026,2.109-0.082,3.257-0.082c1.389,0,2.376,0.027,3.471,0.082c0.188-0.135,0.188-0.588-0.025-0.773l-0.4-0.084
		c-1.363-0.239-1.497-0.425-2.11-2.215l-3.843-11.188c-0.432-1.201-0.776-2.457-1.204-3.66c-0.106-0.136-0.241-0.214-0.454-0.214
		c-0.053,0-0.934,1.096-1.868,1.284c0.079,0.455-0.161,1.093-0.508,1.948l-3.659,9.507c-0.56,1.441-0.987,2.562-1.308,3.255
		c-0.4,0.886-0.694,1.124-1.47,1.231l-0.802,0.136c-0.186,0.237-0.159,0.638,0.028,0.773c0.936-0.055,1.763-0.082,2.645-0.082
		c1.094,0.027,1.976,0.027,2.831,0.082c0.211-0.108,0.24-0.588,0.052-0.773l-0.773-0.136c-0.989-0.135-1.097-0.212-0.562-1.791
		l1.095-3.204c0.24-0.721,0.213-0.721,0.908-0.721H118.93z"/>
	<path fill="#002D5B" d="M151.294,31.613c0.269,0.106,0.24,0.665-0.054,0.773c-1.147-0.055-2.19-0.082-3.258-0.082
		c-1.253,0-2.403,0.027-3.578,0.082c-0.213-0.108-0.319-0.613-0.053-0.773l0.72-0.136c1.07-0.161,1.147-0.374,1.147-2.189v-8.44
		v-2.482h-0.05c-0.721,1.469-1.097,2.269-1.603,3.34l-2.297,4.696c-0.907,1.872-2.244,4.835-2.724,6.089
		c-0.107,0.106-0.506,0.106-0.695,0c-0.455-1.442-1.603-4.059-2.214-5.393l-2.378-5.128c-0.508-1.122-1.228-2.805-1.55-3.604h-0.052
		c-0.055,1.308-0.107,3.389-0.161,4.514c-0.052,1.628-0.106,4.005-0.106,6.195c0,1.758,0.026,2.19,1.176,2.374l0.88,0.165
		c0.188,0.16,0.188,0.665-0.025,0.773c-0.989-0.055-1.818-0.082-2.805-0.082c-0.855,0-1.814,0.027-2.857,0.082
		c-0.241-0.135-0.241-0.645-0.081-0.773l0.453-0.057c1.283-0.162,1.497-0.561,1.657-2.188c0.214-1.683,0.267-3.417,0.4-6.195
		c0.108-1.815,0.267-4.033,0.267-5.66c0-1.257-0.4-1.817-1.443-1.977l-0.906-0.161c-0.161-0.186-0.135-0.695,0.106-0.774
		c0.799,0.053,1.522,0.08,2.509,0.08c0.936,0,1.872,0,2.857-0.08c0.107,1.6,0.801,2.99,1.469,4.432l2.939,6.171
		c0.213,0.453,0.908,1.788,1.253,2.401c0.428-0.773,0.8-1.524,1.39-2.78l2.511-5.123c0.853-1.763,1.708-3.337,2.163-5.102
		c0.72,0.053,1.601,0.08,2.188,0.08c1.123,0,2.059-0.026,2.805-0.08c0.295,0.106,0.349,0.616,0.08,0.774l-0.881,0.135
		c-1.175,0.159-1.443,0.614-1.443,2.029c0,3.951,0.052,7.906,0.241,11.857c0.08,1.788,0.372,1.975,1.227,2.082L151.294,31.613z"/>
	<path fill="#002D5B" d="M157.01,18.526c0-2.831-0.243-2.913-1.495-3.098l-0.429-0.054c-0.188-0.186-0.16-0.668,0.053-0.774
		c1.019,0.053,2.271,0.08,3.446,0.08h5.1c1.711,0,3.259-0.026,3.608-0.08c0.102,0.453,0.26,2.564,0.426,3.712
		c-0.109,0.214-0.646,0.265-0.855,0.108c-0.433-1.55-0.827-2.22-1.681-2.43c-0.619-0.188-1.418-0.242-2.137-0.242h-1.794
		c-1.146,0-1.146,0.054-1.146,1.575v4.514c0,0.696,0.029,0.719,0.642,0.719h1.28c2.323,0,2.779-0.023,2.967-1.174l0.188-0.909
		c0.213-0.185,0.719-0.185,0.854,0.025c-0.03,0.725-0.08,1.685-0.08,2.673c0,1.016,0.05,1.951,0.08,2.8
		c-0.135,0.189-0.641,0.189-0.854,0.031l-0.188-1.071c-0.188-1.121-0.644-1.174-2.967-1.174h-1.28c-0.612,0-0.642,0.053-0.642,0.72
		v3.393c0,1.36,0.053,2.323,0.455,2.775c0.318,0.377,0.772,0.59,3.018,0.59c3.389,0.053,3.975-0.72,4.913-2.883
		c0.236-0.188,0.692-0.109,0.854,0.158c-0.161,1.125-0.747,3.151-1.12,3.875c-1.175-0.055-3.472-0.082-6.597-0.082h-3.043
		c-1.175,0-2.807,0.027-4.004,0.082c-0.218-0.108-0.241-0.588-0.057-0.773l0.99-0.109c1.252-0.134,1.495-0.214,1.495-3.044V18.526z"
		/>
	<path fill="#002D5B" d="M176.931,16.975c0-1.228,0.026-1.307,1.413-1.307c2.323,0,3.686,1.844,3.686,3.95
		c0,2.537-1.198,3.818-3.817,3.818c-1.281,0-1.281-0.051-1.281-0.904V16.975z M173.827,28.459c0,2.83-0.238,2.91-1.49,3.069
		l-0.589,0.084c-0.241,0.185-0.161,0.665,0.052,0.773c1.229-0.055,2.43-0.082,3.606-0.082c1.175,0,2.381,0.027,3.55,0.082
		c0.215-0.108,0.243-0.588,0.057-0.773l-0.588-0.084c-1.256-0.159-1.494-0.239-1.494-3.069V25.04c0-0.562,0.026-0.586,0.825-0.586
		c0.879,0,1.175,0.106,1.656,0.909c0.639,1.039,1.388,2.509,2.11,3.628c1.631,2.486,3.019,3.526,5.58,3.526
		c0.937,0,1.444-0.081,1.761-0.157c0.08-0.137,0.08-0.43-0.052-0.537c-0.321-0.025-1.095-0.188-1.846-0.828
		c-1.251-1.039-2.586-3.311-4.723-6.915c-0.108-0.163-0.162-0.375,0-0.457c1.305-0.532,3.203-1.762,3.203-4.217
		c0-1.924-0.988-3.179-2.349-3.898c-1.175-0.641-2.993-0.909-5.072-0.909c-2.191,0-4.462,0.08-6.146,0.239
		c-0.212,0.134-0.212,0.561-0.025,0.748l0.697,0.082c1.25,0.133,1.275,0.455,1.275,3.017V28.459z"/>
	<path fill="#002D5B" d="M195.779,28.459c0,2.83,0.242,2.91,1.495,3.069l0.591,0.084c0.185,0.185,0.161,0.665-0.057,0.773
		c-1.172-0.055-2.373-0.082-3.548-0.082c-1.174,0-2.434,0.027-3.608,0.082c-0.215-0.108-0.24-0.588-0.052-0.773l0.586-0.084
		c1.258-0.159,1.496-0.239,1.496-3.069v-9.933c0-2.831-0.238-2.913-1.496-3.07l-0.586-0.082c-0.188-0.186-0.163-0.668,0.052-0.774
		c1.175,0.053,2.377,0.08,3.608,0.08c1.175,0,2.376-0.026,3.548-0.08c0.218,0.106,0.241,0.588,0.057,0.774l-0.591,0.082
		c-1.253,0.157-1.495,0.239-1.495,3.07V28.459z"/>
	<path fill="#002D5B" d="M217.893,19.164c-0.189,0.215-0.671,0.243-0.857,0.054c-0.452-1.68-1.655-3.898-5.179-3.898
		c-3.392,0-6.809,2.405-6.809,7.879c0,5.686,3.55,8.463,6.995,8.463c3.363,0,4.836-2.242,5.58-3.977
		c0.243-0.241,0.669-0.134,0.801,0.108c-0.184,1.786-0.907,3.549-1.28,4.057c-0.318,0.053-0.644,0.162-0.938,0.241
		c-0.589,0.187-2.424,0.639-4.162,0.639c-2.642,0-4.916-0.53-6.837-1.789c-2.162-1.414-3.794-3.844-3.794-7.341
		c0-3.127,1.395-5.555,3.366-7.079c1.978-1.495,4.675-2.271,7.371-2.271c1.525,0,3.363,0.271,4.617,0.588
		c0.319,0.079,0.507,0.108,0.75,0.161C217.566,15.613,217.623,17.188,217.893,19.164z"/>
	<path fill="#002D5B" d="M226.141,24.56c-0.638,0-0.721,0-0.426-0.773l1.123-3.125c0.482-1.255,0.692-1.925,0.799-2.11h0.054
		c0.133,0.186,0.291,0.695,0.747,2.11l1.123,3.205c0.213,0.64,0.109,0.693-0.644,0.693H226.141z M229.268,25.761
		c0.744,0,0.827,0,1.094,0.721l1.256,3.634c0.35,1.148,0.267,1.309-0.695,1.412l-0.587,0.084c-0.163,0.16-0.133,0.638,0.076,0.773
		c0.937-0.026,2.11-0.082,3.261-0.082c1.386,0,2.379,0.027,3.473,0.082c0.187-0.135,0.187-0.588-0.026-0.773l-0.403-0.084
		c-1.359-0.239-1.494-0.425-2.109-2.215l-3.845-11.188c-0.426-1.201-0.775-2.457-1.2-3.66c-0.106-0.136-0.239-0.214-0.456-0.214
		c-0.055,0-0.933,1.096-1.87,1.284c0.086,0.455-0.158,1.093-0.503,1.948l-3.661,9.507c-0.56,1.441-0.987,2.562-1.31,3.255
		c-0.395,0.886-0.69,1.124-1.468,1.231l-0.801,0.136c-0.188,0.237-0.16,0.638,0.025,0.773c0.937-0.055,1.766-0.082,2.646-0.082
		c1.094,0.027,1.978,0.027,2.831,0.082c0.213-0.108,0.239-0.588,0.057-0.773l-0.774-0.136c-0.993-0.135-1.097-0.212-0.563-1.791
		l1.095-3.204c0.243-0.721,0.213-0.721,0.907-0.721H229.268z"/>
	<path fill="#002D5B" d="M256.101,27.765c0,0.801,0,4.085,0.086,4.7c-0.216,0.294-0.592,0.4-0.913,0.374
		c-0.426-0.56-1.2-1.469-3.124-3.655l-6.249-7.134c-1.734-1.948-2.591-2.963-3.044-3.364c-0.078,0-0.078,0.294-0.078,1.707v5.209
		c0,2.003,0.026,4.457,0.48,5.262c0.24,0.401,0.694,0.562,1.36,0.665l0.587,0.084c0.24,0.185,0.214,0.691-0.05,0.773
		c-0.99-0.055-2.036-0.082-3.044-0.082c-1.12,0-1.844,0.027-2.78,0.082c-0.213-0.135-0.264-0.588-0.051-0.773l0.585-0.136
		c0.506-0.083,0.988-0.188,1.176-0.613c0.35-0.829,0.35-3.15,0.35-5.262v-6.329c0-2.083,0.026-2.511-0.884-3.282
		c-0.293-0.242-1.04-0.455-1.413-0.534l-0.4-0.082c-0.188-0.158-0.163-0.695,0.105-0.774c1.013,0.106,2.485,0.08,3.15,0.08
		c0.562,0,1.202-0.026,1.842-0.08c0.457,1.148,3.365,4.513,4.302,5.528l2.669,2.883c1.121,1.228,3.605,4.058,3.872,4.221
		c0.076-0.083,0.076-0.215,0.076-0.642v-5.208c0-2.003-0.023-4.458-0.508-5.259c-0.239-0.404-0.667-0.562-1.33-0.667l-0.613-0.082
		c-0.243-0.186-0.217-0.695,0.053-0.774c1.042,0.053,2.027,0.08,3.064,0.08c1.151,0,1.85-0.026,2.808-0.08
		c0.216,0.134,0.269,0.588,0.056,0.774l-0.617,0.135c-0.506,0.078-0.958,0.186-1.145,0.614c-0.378,0.828-0.378,3.149-0.378,5.259
		V27.765z"/>
	<path fill="#002D5B" d="M126.219,46.55c-0.187,0.212-0.666,0.24-0.853,0.052c-0.455-1.681-1.656-3.897-5.181-3.897
		c-3.393,0-6.812,2.403-6.812,7.875c0,5.689,3.552,8.47,6.998,8.47c3.365,0,4.832-2.248,5.579-3.979
		c0.242-0.244,0.67-0.138,0.804,0.102c-0.186,1.793-0.909,3.555-1.283,4.06c-0.321,0.057-0.641,0.168-0.936,0.244
		c-0.587,0.187-2.429,0.638-4.164,0.638c-2.646,0-4.914-0.531-6.836-1.787c-2.164-1.416-3.792-3.847-3.792-7.347
		c0-3.121,1.389-5.549,3.364-7.073c1.977-1.496,4.674-2.272,7.37-2.272c1.522,0,3.368,0.271,4.621,0.587
		c0.32,0.083,0.507,0.108,0.748,0.163C125.898,42.996,125.951,44.573,126.219,46.55z"/>
	<path fill="#002D5B" d="M138.584,42.705c4.244,0,6.062,4.674,6.062,8.702c0,5.367-2.458,7.643-5.501,7.643
		c-4.568,0-6.142-5.027-6.142-8.711C133.002,44.651,135.912,42.705,138.584,42.705z M138.931,41.634
		c-5.608,0-9.561,4.033-9.561,9.481c0,4.752,3.47,8.998,9.507,8.998c5.393,0,9.401-3.926,9.401-9.184
		C148.278,46.066,145.098,41.634,138.931,41.634z"/>
	<path fill="#002D5B" d="M156.767,55.283c0,1.332,0.057,2.295,0.456,2.75c0.319,0.369,0.747,0.587,2.883,0.587
		c2.965,0,3.39-0.133,4.621-2.887c0.268-0.134,0.692-0.054,0.824,0.161c-0.213,1.12-0.798,3.155-1.12,3.871
		c-1.122-0.052-3.417-0.082-6.407-0.082h-2.778c-1.361,0-2.699,0.03-3.82,0.082c-0.212-0.104-0.292-0.641-0.051-0.771l0.801-0.137
		c1.255-0.158,1.496-0.238,1.496-3.019v-9.93c0-2.779-0.241-2.856-1.496-3.045l-0.75-0.108c-0.185-0.133-0.185-0.667,0.057-0.772
		c1.331,0.051,2.537,0.079,3.764,0.079c1.175,0,2.378-0.028,3.552-0.079c0.238,0.105,0.267,0.639,0.052,0.772l-0.586,0.108
		c-1.253,0.189-1.496,0.266-1.496,3.045V55.283z"/>
	<path fill="#002D5B" d="M172.816,55.283c0,1.332,0.054,2.295,0.454,2.75c0.318,0.369,0.748,0.587,2.88,0.587
		c2.969,0,3.399-0.133,4.623-2.887c0.268-0.134,0.695-0.054,0.832,0.161c-0.218,1.12-0.806,3.155-1.125,3.871
		c-1.12-0.052-3.418-0.082-6.409-0.082h-2.774c-1.366,0-2.699,0.03-3.822,0.082c-0.212-0.104-0.292-0.641-0.052-0.771l0.802-0.137
		c1.255-0.158,1.498-0.238,1.498-3.019v-9.93c0-2.779-0.243-2.856-1.498-3.045l-0.75-0.108c-0.182-0.133-0.182-0.667,0.057-0.772
		c1.336,0.051,2.536,0.079,3.766,0.079c1.175,0,2.375-0.028,3.549-0.079c0.241,0.105,0.27,0.639,0.053,0.772l-0.586,0.108
		c-1.258,0.189-1.496,0.266-1.496,3.045V55.283z"/>
	<path fill="#002D5B" d="M185.77,45.91c0-2.832-0.243-2.914-1.498-3.1l-0.426-0.054c-0.187-0.185-0.16-0.667,0.053-0.772
		c1.016,0.051,2.271,0.079,3.445,0.079h5.101c1.708,0,3.259-0.028,3.604-0.079c0.106,0.45,0.267,2.564,0.428,3.71
		c-0.106,0.215-0.643,0.267-0.853,0.107c-0.429-1.552-0.83-2.22-1.684-2.431c-0.614-0.188-1.417-0.241-2.141-0.241h-1.784
		c-1.146,0-1.146,0.053-1.146,1.576v4.512c0,0.695,0.021,0.721,0.639,0.721h1.28c2.323,0,2.774-0.026,2.967-1.174l0.186-0.907
		c0.213-0.187,0.719-0.187,0.854,0.026c-0.025,0.722-0.082,1.684-0.082,2.669c0,1.019,0.057,1.949,0.082,2.803
		c-0.135,0.188-0.641,0.188-0.854,0.028l-0.186-1.068c-0.192-1.123-0.644-1.174-2.967-1.174h-1.28c-0.617,0-0.639,0.052-0.639,0.72
		v3.393c0,1.36,0.052,2.323,0.451,2.778c0.324,0.369,0.775,0.587,3.016,0.587c3.392,0.054,3.979-0.722,4.916-2.887
		c0.238-0.184,0.695-0.105,0.855,0.161c-0.16,1.12-0.749,3.155-1.122,3.871c-1.175-0.052-3.475-0.082-6.597-0.082h-3.044
		c-1.175,0-2.803,0.03-4.006,0.082c-0.215-0.104-0.24-0.586-0.055-0.771l0.988-0.108c1.255-0.135,1.498-0.213,1.498-3.047V45.91z"/>
	<path fill="#002D5B" d="M216.719,56.91c0,0.937,0.13,1.629,0.642,1.87c0.076,0.106,0.076,0.314-0.03,0.399
		c-0.295,0-0.776,0.083-1.281,0.22c-1.656,0.366-3.659,0.714-5.181,0.714c-3.207,0-6.221-0.851-8.225-2.936
		c-1.575-1.628-2.349-3.873-2.349-6.116c0-2.242,0.773-4.542,2.455-6.276c1.897-2.001,4.808-3.151,8.516-3.151
		c1.26,0,2.621,0.215,3.557,0.4c0.611,0.135,1.383,0.243,1.707,0.243c0.024,0.801,0.214,2.164,0.35,4.243
		c-0.136,0.27-0.724,0.298-0.858,0.056c-0.587-2.589-2.484-3.872-5.126-3.872c-4.703,0-6.965,3.39-6.965,7.931
		c0,2.135,0.476,4.435,1.921,6.138c1.44,1.714,3.576,2.276,5.15,2.276c1.282,0,2.056-0.218,2.375-0.619
		c0.16-0.241,0.24-0.719,0.24-1.679V55.79c0-1.897-0.023-2.056-1.812-2.354l-0.962-0.155c-0.185-0.191-0.185-0.642,0.025-0.778
		c1.038,0.052,2.325,0.078,4.162,0.078c1.208,0,2.113-0.026,3.262-0.078c0.269,0.137,0.298,0.587,0.054,0.778l-0.479,0.075
		c-0.987,0.137-1.147,0.378-1.147,2.005V56.91z"/>
	<path fill="#002D5B" d="M223.283,45.91c0-2.832-0.239-2.914-1.493-3.1l-0.424-0.054c-0.19-0.185-0.164-0.667,0.05-0.772
		c1.012,0.051,2.269,0.079,3.445,0.079h5.099c1.714,0,3.259-0.028,3.611-0.079c0.101,0.45,0.263,2.564,0.423,3.71
		c-0.106,0.215-0.642,0.267-0.854,0.107c-0.433-1.552-0.829-2.22-1.683-2.431c-0.614-0.188-1.416-0.241-2.137-0.241h-1.791
		c-1.144,0-1.144,0.053-1.144,1.576v4.512c0,0.695,0.021,0.721,0.638,0.721h1.283c2.32,0,2.777-0.026,2.964-1.174l0.187-0.907
		c0.216-0.187,0.719-0.187,0.854,0.026c-0.029,0.722-0.083,1.684-0.083,2.669c0,1.019,0.054,1.949,0.083,2.803
		c-0.135,0.188-0.638,0.188-0.854,0.028l-0.187-1.068c-0.187-1.123-0.644-1.174-2.964-1.174h-1.283c-0.617,0-0.638,0.052-0.638,0.72
		v3.393c0,1.36,0.051,2.323,0.451,2.778c0.319,0.369,0.775,0.587,3.018,0.587c3.39,0.054,3.979-0.722,4.913-2.887
		c0.239-0.184,0.695-0.105,0.856,0.161c-0.161,1.12-0.75,3.155-1.123,3.871c-1.175-0.052-3.472-0.082-6.596-0.082h-3.045
		c-1.177,0-2.805,0.03-4.008,0.082c-0.213-0.104-0.239-0.586-0.053-0.771l0.989-0.108c1.254-0.135,1.493-0.213,1.493-3.047V45.91z"
		/>
	<path fill="#002D5B" d="M247.427,59.095c-0.618,0-0.967-0.581-0.967-1.383c0-1.979,1.39-5.157,2.649-6.782
		c0.69-0.879,1.253-1.175,1.733-1.175c0.751,0,0.854,0.721,0.854,1.439c0,1.735-1.278,4.942-2.243,6.332
		C248.652,58.674,248.065,59.095,247.427,59.095z M244.01,56.559c-0.057,1.955,1.066,3.502,3.308,3.502
		c1.176,0,2.672-0.315,4.22-1.841c1.786-1.71,2.616-4.14,2.616-5.797c0.05-2.004-0.905-3.63-3.283-3.63
		c-1.203,0-2.537,0.345-4.062,1.787C245.156,52.075,244.06,54.611,244.01,56.559z"/>
	<path fill="#002D5B" d="M262.455,50.338c-0.904,2.673-2.131,7.532-2.958,10.146c-0.672,2.089-1.393,3.687-2.059,4.545
		c-0.561,0.721-1.976,1.844-3.635,1.844c-1.279,0-2.243-0.858-2.243-1.792c0-0.721,0.482-1.252,1.017-1.252
		c0.373,0,0.616,0.182,0.829,0.531c0.507,0.801,1.097,1.338,1.548,1.338c0.399,0,0.774-0.431,1.312-2.274
		c0.904-3.202,2.187-8.382,3.521-13.085h-2.373c-0.27-0.371-0.054-1.012,0.317-1.175h2.374c0.615-2.054,1.209-3.898,2.299-5.473
		c1.337-1.948,3.021-3.096,5.099-3.096c1.662,0,2.666,0.962,2.666,2.056c0,1.121-0.848,1.815-1.434,1.815
		c-0.379,0-0.537-0.16-0.589-0.535c-0.212-1.816-0.988-2.375-1.521-2.375c-0.589,0-1.227,0.665-1.79,1.787
		c-0.884,1.765-1.473,3.795-2.061,5.821h3.182c0.215,0.324,0.108,0.962-0.321,1.175H262.455z"/>
	<path fill="#002D5B" d="M126.019,73.905c-0.188,0.216-0.668,0.243-0.853,0.057c-0.457-1.682-1.657-3.896-5.182-3.896
		c-3.391,0-6.811,2.401-6.811,7.874c0,5.687,3.552,8.461,6.997,8.461c3.366,0,4.834-2.24,5.583-3.973
		c0.239-0.241,0.667-0.137,0.8,0.104c-0.187,1.789-0.907,3.553-1.283,4.061c-0.319,0.051-0.639,0.157-0.932,0.24
		c-0.587,0.189-2.432,0.639-4.167,0.639c-2.642,0-4.914-0.529-6.836-1.789c-2.163-1.418-3.792-3.841-3.792-7.341
		c0-3.124,1.391-5.56,3.365-7.075c1.977-1.494,4.673-2.267,7.37-2.267c1.522,0,3.367,0.265,4.622,0.585
		c0.319,0.076,0.507,0.104,0.747,0.154C125.698,70.361,125.752,71.932,126.019,73.905z"/>
	<path fill="#002D5B" d="M134.27,79.302c-0.642,0-0.723,0-0.429-0.773l1.122-3.124c0.481-1.256,0.695-1.921,0.8-2.107h0.053
		c0.133,0.187,0.294,0.691,0.748,2.107l1.123,3.203c0.213,0.645,0.106,0.694-0.643,0.694H134.27z M137.394,80.505
		c0.747,0,0.828,0,1.095,0.718l1.255,3.636c0.347,1.145,0.266,1.309-0.695,1.417l-0.588,0.073c-0.159,0.165-0.131,0.645,0.082,0.776
		c0.934-0.025,2.11-0.082,3.257-0.082c1.388,0,2.375,0.029,3.471,0.082c0.186-0.132,0.186-0.588-0.026-0.776l-0.401-0.073
		c-1.362-0.243-1.497-0.433-2.11-2.224l-3.844-11.184c-0.429-1.203-0.775-2.458-1.201-3.658c-0.108-0.137-0.241-0.21-0.455-0.21
		c-0.053,0-0.934,1.092-1.87,1.276c0.082,0.453-0.16,1.094-0.506,1.951l-3.658,9.505c-0.562,1.438-0.99,2.562-1.31,3.26
		c-0.402,0.88-0.694,1.117-1.469,1.223l-0.802,0.134c-0.186,0.244-0.158,0.645,0.027,0.776c0.937-0.053,1.764-0.082,2.645-0.082
		c1.095,0.029,1.976,0.029,2.83,0.082c0.214-0.103,0.241-0.588,0.056-0.776l-0.776-0.134c-0.987-0.13-1.093-0.212-0.56-1.782
		l1.095-3.21c0.242-0.718,0.213-0.718,0.907-0.718H137.394z"/>
	<path fill="#002D5B" d="M152.64,71.722c0-1.231,0.029-1.312,1.414-1.312c2.325,0,3.687,1.841,3.687,3.951
		c0,2.536-1.2,3.82-3.819,3.82c-1.281,0-1.281-0.056-1.281-0.909V71.722z M149.543,83.203c0,2.829-0.24,2.906-1.494,3.072
		l-0.588,0.073c-0.241,0.188-0.161,0.674,0.051,0.776c1.228-0.053,2.431-0.082,3.608-0.082c1.175,0,2.377,0.029,3.552,0.082
		c0.21-0.103,0.238-0.588,0.052-0.776l-0.588-0.073c-1.258-0.166-1.497-0.243-1.497-3.072v-3.422c0-0.561,0.029-0.585,0.833-0.585
		c0.882,0,1.167,0.105,1.654,0.906c0.638,1.044,1.383,2.51,2.105,3.637c1.631,2.476,3.018,3.522,5.58,3.522
		c0.938,0,1.445-0.08,1.765-0.162c0.078-0.13,0.078-0.426-0.052-0.533c-0.321-0.029-1.097-0.185-1.846-0.827
		c-1.255-1.043-2.586-3.312-4.725-6.918c-0.108-0.157-0.158-0.373,0-0.453c1.31-0.537,3.202-1.761,3.202-4.22
		c0-1.921-0.987-3.178-2.349-3.896c-1.174-0.644-2.992-0.91-5.074-0.91c-2.188,0-4.458,0.081-6.141,0.243
		c-0.212,0.13-0.212,0.556-0.025,0.743l0.693,0.082c1.256,0.133,1.282,0.451,1.282,3.017V83.203z"/>
	<path fill="#002D5B" d="M171.493,72.759c0-1.252,0.028-1.812,0.212-1.976c0.189-0.163,1.045-0.373,2.165-0.373
		c4.46,0,7.529,2.564,7.529,7.849c0,4.514-2.134,7.88-6.889,7.88c-2.829,0-3.018-1.39-3.018-3.978V72.759z M168.396,83.203
		c0,2.829-0.24,2.906-1.5,3.072l-0.587,0.073c-0.184,0.188-0.155,0.674,0.057,0.776c1.173-0.053,2.378-0.082,3.392-0.082
		c0.99,0,2.243,0.163,3.869,0.163c2.434,0,4.729-0.323,6.624-1.28c3.312-1.683,4.781-4.727,4.781-7.69
		c0-3.978-2.269-6.813-5.476-7.983c-1.947-0.7-3.765-0.91-6.301-0.91c-2.616,0-4.753,0.081-6.677,0.243
		c-0.213,0.13-0.213,0.605-0.025,0.743l0.562,0.057c1.25,0.158,1.28,0.477,1.28,3.042V83.203z"/>
	<path fill="#002D5B" d="M193.763,83.203c0,2.829,0.238,2.906,1.498,3.072l0.587,0.073c0.184,0.188,0.158,0.674-0.052,0.776
		c-1.175-0.053-2.381-0.082-3.551-0.082c-1.177,0-2.435,0.029-3.611,0.082c-0.21-0.103-0.235-0.588-0.052-0.776l0.586-0.073
		c1.256-0.166,1.499-0.243,1.499-3.072v-9.938c0-2.831-0.243-2.903-1.499-3.074l-0.586-0.073c-0.184-0.189-0.158-0.669,0.052-0.775
		c1.177,0.055,2.383,0.081,3.611,0.081c1.17,0,2.376-0.026,3.551-0.081c0.21,0.106,0.235,0.586,0.052,0.775l-0.587,0.073
		c-1.26,0.171-1.498,0.243-1.498,3.074V83.203z"/>
	<path fill="#002D5B" d="M208.611,70.065c4.242,0,6.062,4.672,6.062,8.702c0,5.367-2.457,7.633-5.504,7.633
		c-4.565,0-6.14-5.015-6.14-8.703C203.029,72.012,205.938,70.065,208.611,70.065z M208.959,69c-5.605,0-9.561,4.027-9.561,9.476
		c0,4.751,3.475,8.996,9.506,8.996c5.393,0,9.399-3.919,9.399-9.187C218.304,73.427,215.13,69,208.959,69z"/>
	<path fill="#002D5B" d="M227.034,82.639c0,1.34,0.057,2.297,0.456,2.751c0.318,0.373,0.748,0.589,2.888,0.589
		c2.961,0,3.384-0.136,4.616-2.882c0.267-0.137,0.694-0.057,0.828,0.161c-0.214,1.119-0.802,3.143-1.124,3.867
		c-1.117-0.053-3.416-0.082-6.407-0.082h-2.778c-1.362,0-2.698,0.029-3.82,0.082c-0.21-0.103-0.293-0.639-0.052-0.776l0.804-0.134
		c1.253-0.156,1.49-0.236,1.49-3.012v-9.938c0-2.774-0.237-2.854-1.49-3.041l-0.752-0.106c-0.187-0.135-0.187-0.669,0.058-0.775
		c1.333,0.055,2.536,0.081,3.763,0.081c1.179,0,2.377-0.026,3.552-0.081c0.237,0.106,0.27,0.641,0.054,0.775l-0.585,0.106
		c-1.26,0.187-1.499,0.267-1.499,3.041V82.639z"/>
	<path fill="#002D5B" d="M246.907,70.065c4.249,0,6.066,4.672,6.066,8.702c0,5.367-2.463,7.633-5.504,7.633
		c-4.566,0-6.142-5.015-6.142-8.703C241.328,72.012,244.236,70.065,246.907,70.065z M247.254,69c-5.609,0-9.559,4.027-9.559,9.476
		c0,4.751,3.471,8.996,9.508,8.996c5.391,0,9.398-3.919,9.398-9.187C256.602,73.427,253.425,69,247.254,69z"/>
	<path fill="#002D5B" d="M276.601,84.265c0,0.94,0.135,1.632,0.643,1.874c0.077,0.106,0.077,0.323-0.029,0.398
		c-0.293,0-0.771,0.08-1.277,0.213c-1.654,0.375-3.661,0.722-5.184,0.722c-3.201,0-6.222-0.854-8.225-2.938
		c-1.573-1.625-2.351-3.868-2.351-6.108c0-2.246,0.777-4.543,2.456-6.28c1.897-2.004,4.809-3.145,8.519-3.145
		c1.258,0,2.617,0.21,3.555,0.396c0.609,0.132,1.386,0.241,1.705,0.241c0.03,0.796,0.214,2.157,0.352,4.244
		c-0.138,0.267-0.724,0.293-0.858,0.053c-0.589-2.591-2.481-3.869-5.123-3.869c-4.704,0-6.97,3.387-6.97,7.931
		c0,2.133,0.479,4.432,1.923,6.139c1.438,1.708,3.574,2.266,5.153,2.266c1.283,0,2.055-0.21,2.374-0.607
		c0.161-0.24,0.241-0.723,0.241-1.685v-0.962c0-1.894-0.028-2.057-1.814-2.349l-0.963-0.163c-0.187-0.187-0.187-0.639,0.026-0.773
		c1.04,0.055,2.323,0.08,4.164,0.08c1.209,0,2.113-0.025,3.263-0.08c0.267,0.135,0.293,0.587,0.05,0.773l-0.479,0.083
		c-0.987,0.131-1.15,0.372-1.15,2.004V84.265z"/>
	<path fill="#002D5B" d="M286.132,81.622c0-1.493-0.106-1.894-0.851-3.311l-3.205-6.327c-0.589-1.144-0.802-1.468-2.002-1.708
		l-0.694-0.159c-0.163-0.189-0.109-0.694,0.106-0.775c1.146,0.055,2.27,0.081,3.364,0.081c1.173,0,2.807-0.026,3.418-0.081
		c0.213,0.106,0.27,0.586,0.05,0.775l-0.8,0.135c-0.425,0.053-0.562,0.133-0.562,0.345c0,0.215,0.111,0.507,0.484,1.388
		c1.066,2.294,2.03,4.46,3.099,6.41c1.089-2.03,2.077-3.897,3.124-5.902c0.448-0.907,0.719-1.493,0.719-1.789
		c0-0.27-0.241-0.342-0.612-0.398l-0.803-0.188c-0.186-0.189-0.186-0.641,0.08-0.775c1.174,0.055,2.004,0.081,2.805,0.081
		c0.829,0,1.681-0.026,2.536-0.081c0.239,0.135,0.239,0.562,0.057,0.775l-0.774,0.159c-1.206,0.214-1.525,0.723-2.912,3.071
		c-0.906,1.521-1.711,2.99-2.535,4.483c-0.805,1.39-0.993,1.95-0.993,3.771v1.602c0,2.829,0.243,2.906,1.552,3.042l1.014,0.104
		c0.187,0.188,0.162,0.674-0.054,0.776c-1.657-0.053-2.857-0.082-4.031-0.082c-1.229,0-2.43,0.029-3.871,0.082
		c-0.216-0.103-0.239-0.588-0.057-0.776l0.854-0.104c1.256-0.136,1.494-0.213,1.494-3.042V81.622z"/>
</g>
<g>
	<path fill="#FFFFFF" stroke="#002D5B" stroke-width="0.6143" d="M95.454,50.858c0,24.583-19.926,44.512-44.507,44.512
		c-24.583,0-44.514-19.929-44.514-44.512c0-24.576,19.93-44.507,44.514-44.507C75.528,6.352,95.454,26.282,95.454,50.858z"/>
	<path fill="#002D5B" d="M96.034,50.863c0,24.902-20.187,45.085-45.085,45.085c-24.905,0-45.094-20.183-45.094-45.085
		c0-24.903,20.189-45.09,45.094-45.09C75.847,5.773,96.034,25.96,96.034,50.863z"/>
	<path fill="#FFFFFF" d="M52.787,51.99c-0.539-0.128-4.279-1.682-4.342-1.732c-0.294-0.232-0.055-0.702,0.52-0.47
		c0.226,0.083,3.854,1.484,4.142,1.576C53.492,51.484,53.572,52.173,52.787,51.99z"/>
	<path fill="#FFFFFF" stroke="#002D5B" stroke-width="0.6143" d="M90.231,50.858c0,21.695-17.594,39.277-39.286,39.277
		c-21.694,0-39.288-17.582-39.288-39.277c0-21.708,17.594-39.294,39.288-39.294C72.638,11.564,90.231,29.15,90.231,50.858z"/>
	<g>
		<defs>
			<path id="SVGID_1_" d="M86.419,50.873c0,19.644-15.924,35.565-35.561,35.565c-19.641,0-35.569-15.922-35.569-35.565
				c0-19.646,15.928-35.567,35.569-35.567C70.495,15.306,86.419,31.228,86.419,50.873z"/>
		</defs>
		<use xlink:href="#SVGID_1_"  overflow="visible" fill="#FFFFFF"/>
		<clipPath id="SVGID_2_">
			<use xlink:href="#SVGID_1_"  overflow="visible"/>
		</clipPath>
		<g clip-path="url(#SVGID_2_)">
			<path fill="#002D5B" d="M40.357,10.642c0.262,0.04,0.707-0.128,0.638-0.289c-0.079-0.157-0.152-0.102-0.45-0.094
				C40.161,10.272,40.086,10.599,40.357,10.642z"/>
			<path fill="#002D5B" d="M42.344,15.297c0.243,0.169,1.576,0.369,1.966,0.387c0.396,0.015,0.332-0.317,0.169-0.287
				c-0.169,0.03-2.283-0.461-2.549-0.461c-0.253,0.002-0.642-0.229-0.824-0.282c-0.185-0.057-0.562-0.247-0.434-0.008l-0.067,0.137
				C40.771,14.969,42.101,15.123,42.344,15.297z"/>
			<path fill="#002D5B" d="M42.739,12.895c0,0-0.12-0.412-0.373-0.407c-0.26,0-0.452,0.163-0.571,0.183
				C41.38,12.747,42.739,12.895,42.739,12.895z"/>
			<path fill="#002D5B" d="M40.902,11.536c-0.316,0.235,0.616,0.064,0.502-0.045C41.306,11.379,41.052,11.426,40.902,11.536z"/>
			<path fill="#002D5B" d="M41.306,12.371c0.017-0.134-0.208-0.222-0.357-0.108l-0.038,0.09c-0.028,0.311,0.323,0.334,0.323,0.334
				S41.289,12.501,41.306,12.371z"/>
			<path fill="#002D5B" d="M69.139,75.659c0.306-0.178,0.436-0.508,0.116-0.415c-0.322,0.09-2.022,0.661-2.351,0.505
				c-0.243-0.115-0.743,0.283-0.34,0.307C66.962,76.075,68.839,75.834,69.139,75.659z"/>
			<path fill="#002D5B" d="M41.254,13.289c0.171,0.117,1.028,0.462,1.258,0.512c0.224,0.046,0.97-0.131,0.475-0.209
				c-0.483-0.09-1.111-0.416-1.372-0.455C41.349,13.101,41.107,13.187,41.254,13.289z"/>
			<path fill="#002D5B" d="M46.75,13.569c0.219,0.046,0.608-0.197,0.608-0.197s-0.451,0.125-0.492-0.083
				C46.821,12.982,46.517,13.52,46.75,13.569z"/>
			<path fill="#002D5B" d="M42.769,14.533c0.191,0.097,0.609,0.281,0.824,0.242c0.208-0.037,0.521-0.223,0.38-0.285
				c-0.14-0.061-0.651-0.017-0.985-0.169C42.604,14.136,42.579,14.436,42.769,14.533z"/>
			<path fill="#002D5B" d="M73.236,74.844c0.215-0.443-0.104,0.151-0.556,0.467c-5.849,4.038-13.407,3.62-13.827,3.507
				c-0.414-0.106-2.986-0.057-3.224-0.043c-0.241,0.014-0.364,0.25-0.509,0.278c-0.148,0.031-0.58,0.166-0.02,0.249
				c0.565,0.08,3.229-0.105,3.46-0.096c4.734,0.186,8.354-0.805,9.195-1.051C68.593,77.921,72.606,76.146,73.236,74.844z"/>
			<path fill="#002D5B" d="M47.499,37.07c-0.081-0.289,0.256-0.241,0.59-0.389c0.344-0.151,1.58,0.614,2.074,0.494
				c0.494-0.117,1.529-0.085,2.159,0.376c0.629,0.464,2.056,0.977,2.363,1.014c0.313,0.03,0.56,0.387,0.373,0.542
				c-0.188,0.153,1.051,1.486,1.123,1.836c0.051,0.353,0.689,0.999,1.132,1.892c0.458,0.917,2.306,1.463,2.594,1.533
				c0.286,0.073,0.452,0.474,0.74,0.422c0.3-0.061-0.034-0.362-0.052-0.475c-0.028-0.118,0.177-0.066,0.367,0.02
				c0.196,0.087,0.398,0.352,0.441,0.23c0.032-0.132,0.096-0.139,0.354-0.039c0.261,0.112,0.292,0.282,0.448,0.315
				c0.158,0.03,0.105-0.077-0.043-0.267c-0.155-0.181,0.053-0.371,0.253-0.253c0.204,0.115,0.638,0.676,0.912,0.658
				c0.268-0.018-0.033-0.327-0.101-0.558c-0.073-0.233,0.233-0.224,0.396-0.009c0.154,0.212,0.716,0.785,1.088,0.808
				c0.367,0.028-0.078-0.413-0.06-0.656c0.017-0.25,0.195-0.098,0.393,0.137c0.186,0.241,1.129,1.606,1.348,1.479
				c0.226-0.13,1.384,1.998,1.646,2.955c0.261,0.955,0.58,0.79,0.54,0.633c-1.379-5.04-2.984-5.362-3.5-5.724
				c-0.527-0.362-7.694-1.952-7.764-2.329c-0.07-0.387-1.484-2.019-1.484-2.019s-1.034-1.396-1.218-1.575
				c-0.184-0.18-2.624-1.81-3.29-2.119c-0.662-0.307-1.216-0.335-2.393-0.645c-1.17-0.302-1.21-0.358-1.79-0.5
				c-0.566-0.145-1.316,0.781-1.447,1.047c0.536,0.538,1.341,1.375,1.989,2.13c0.417,0.125,0.823,0.228,0.886,0.218
				C48.675,38.232,47.58,37.362,47.499,37.07z"/>
			<path fill="#002D5B" d="M56.531,72.21c-0.389-0.026-0.568-0.05-0.902-0.099c-0.336-0.047-0.5,0.266-0.238,0.367
				c0.254,0.108,0.728,0.182,1.022,0.13C56.704,72.557,56.929,72.23,56.531,72.21z"/>
			<path fill="#002D5B" d="M54.524,69.834c0.375-0.1,0.25-0.334,0.233-0.416c-0.015-0.095-1.003-0.27-1.183-0.333
				c-0.331-0.121-0.583,0.35-0.2,0.463C53.762,69.661,54.144,69.931,54.524,69.834z"/>
			<path fill="#002D5B" d="M55.158,71.001c-0.369-0.04-0.851-0.213-1.114-0.258c-0.364-0.063-0.546,0.341-0.267,0.407
				c0.295,0.076,1.03,0.276,1.178,0.253C55.101,71.374,55.371,71.022,55.158,71.001z"/>
			<path fill="#002D5B" d="M56.204,73.65c0.173,0.125,1.913,0.302,2.17,0.228c0.264-0.076,0.415-0.256,0.394-0.344
				c-0.008-0.094-0.235-0.144-0.517-0.032c-0.29,0.108-1.443-0.048-1.625-0.085C56.321,73.338,56.029,73.53,56.204,73.65z"/>
			<path fill="#002D5B" d="M56.439,74.999c0.179,0.123,1.916,0.302,2.172,0.229c0.265-0.079,0.414-0.259,0.395-0.346
				c-0.01-0.095-0.235-0.149-0.52-0.033c-0.288,0.113-1.44-0.043-1.625-0.087C56.557,74.69,56.266,74.882,56.439,74.999z"/>
			<path fill="#002D5B" d="M57.198,76.111c0.175,0.123,1.912,0.3,2.168,0.227c0.266-0.079,0.415-0.259,0.396-0.349
				c-0.01-0.087-0.234-0.139-0.518-0.032c-0.291,0.118-1.443-0.035-1.627-0.082C57.316,75.801,57.024,75.989,57.198,76.111z"/>
		</g>
		<path clip-path="url(#SVGID_2_)" fill="#002D5B" d="M72.151,36.372L72.151,36.372c-4.691-4.194-10.103-5.791-15.116-5.676
			c0.152-0.85,0.304-1.883,0.434-3.023c0.597,0.042,1.822,0.059,2.619,0.087c0.395,0.015,0.791-0.198,0.691-0.417
			c-0.098-0.216-0.512-1.13-1.112-1.267c-0.321-0.072-1.312-0.633-1.941-0.837c0.209-2.339,0.365-4.884,0.414-7.15
			c0.096-4.935-2.674-8.78-7.013-8.944c-0.759-0.032-1.098-0.501-0.924-1.422c0.279-1.494,0.915-3.409,1.396-4.926
			c0.251-0.791-0.203-1.547-0.955-1.414c-0.521,0.09-1.004,0.128-1.469,0.023c-0.454-0.097-1.023,0.252-1.023,0.252
			c-0.605,0.238-0.859,0.803-1.003,1.213c-0.14,0.421-1.108,2.835-1.261,3.21c-0.148,0.37-0.296,1.994-0.637,1.539
			c-0.233-0.309-0.417-0.367-0.535-0.494c-0.198-1.622-0.324-3.229-0.455-3.969c-0.185-1.029-1.177-1.236-1.816-0.442
			c-0.287,0.352-0.539,0.707-0.862,1.035c-0.357,0.362-0.776,0.434-1.258,0.333c-0.492-0.101-0.949,0.091-1.287,0.459
			c-0.351,0.388-1.02,0.52-1.473,0.236c-0.322-0.203-0.644-0.426-1.015-0.492c-0.373-0.058-0.602,0.158-0.564,0.46
			c0.172,1.644,0.428,3.341,0.556,4.754l0.141,2.788c0.007,1.23-0.026,2.448-0.103,3.259c-0.107,1.12-0.156,2.176-0.073,2.926
			c0.055,0.557-0.026,0.935-0.171,1.394c-0.353,1.187-0.545,2.27-0.513,3.797c0.042,1.533,0.02,3.862-0.058,5.95
			c-0.06,2.081-0.358,5.788-0.25,8.881c0.012-0.006,0.022-0.013,0.037-0.023c-0.468,0.274-0.914,0.577-1.334,0.897
			c0.044-0.032,0.074-0.061,0.117-0.094V39.25c-0.278-3.111,0.101-6.953-0.521-10.475c-0.295-1.672-1.927-1.647-2.439-0.097
			c-0.161,0.508-0.275,0.834-0.447,1.281c-0.25,0.628-0.608,0.897-1.325,1.025c-0.885,0.158-1.909,0.434-2.549,0.718
			c-0.331,0.148-0.522,0.501-0.473,1.019c0.133,1.26,0.305,4.271,0.5,8.226c-0.449,0.14-0.871,0.39-1.198,0.768
			c-0.769,0.885-1.036,2.079-0.528,3.741c0.726,2.371,0.593,3.561,0.001,5.045c-1.159,2.933-0.512,7.081,1.818,10.001
			c0.045,0.058,0.09,0.109,0.13,0.147c0.206,0.219,0.427,0.354,0.661,0.422c-0.009,0-0.02-0.012-0.03-0.012
			c0.339,8.807,0.615,17.048,0.692,20.396c-0.008,0.462,0.283,0.986,0.817,1.396c0.768,0.581,1.712,0.137,2.151-0.382
			c0.435-0.517,0.994-0.181,1.022,0.565c0.028,0.647,0.545,1.073,0.891,1.381c0.316,0.273,0.769,0.605,1.186,0.931
			c0.676,0.533,1.369,0.359,1.394-0.142l0,0c-0.028-3.616-0.23-9.35-0.452-13.197c-0.063-0.069-0.115-0.137-0.175-0.213
			c2.73,3.303,6.227,5.953,10.394,7.424h-0.012l0,0c0.857,3.356,1.909,9.685,1.941,9.838c0.109,0.704,0.817,1.373,2.083,1.459
			c0.785,0.057,1.574-0.362,2.257-0.479c0.691-0.122,1.294,0.141,1.858,0.458c0.935,0.54,2.406,0.629,3.383,0.153
			c0.608-0.3,0.772-0.773,0.663-1.208c0,0.017,0.009,0.029,0.009,0.05l-1.775-8.562l0.308-0.036c0.952,0.17,1.917,0.138,2.882-0.1
			c3.627,0.086,6.998-0.52,9.749-1.739c2.61-1.146,4.582-2.795,5.691-4.758c0.884-1.555,1.181-3.221,0.888-4.858
			c-0.176-1.012-0.584-2.023-1.209-2.992L74.5,66.336c-1.912-2.969-3.741-5.823-4.33-9.125c-0.235-1.335-0.017-2.779,0.24-4.297
			c0.174-1.101,0.136-2.344-0.083-3.587c-0.267-1.526-0.821-3.054-1.57-4.334c0,0,1.944,0.884,3.538,1.717v-0.003
			c0.604,0.309,0.94-0.148,0.711-0.623c-0.129-0.265-0.383-0.664-0.665-1.085c-0.295-0.438-0.526-0.814-0.442-1.328
			c0.135-0.776-0.087-1.828-0.609-3.111c-0.82-2.009-0.336-3.036,0.68-3.312C72.399,37.13,72.458,36.655,72.151,36.372z
			 M57.725,89.607c-0.01-0.033-0.017-0.059-0.023-0.082C57.708,89.549,57.714,89.574,57.725,89.607z M56.349,30.51
			c-1.032,0.037-4.018,0.42-5.025,0.597c-0.071-0.371,0.211-2.293,0.6-2.447c0.401-0.028,2.764-0.4,3.122-0.403
			c0.693-0.017,1.083-0.147,1.637-0.141C56.583,29.014,56.467,29.813,56.349,30.51z M38.662,25.497
			c0.171-0.017,0.366-0.078,0.948,0.038c0.58,0.11,0.208-0.251,0.031-0.3c-0.19-0.056-0.609-0.13-1.098-0.187
			c-1.344-0.148-1.036-0.911-0.609-0.911c0.423,0,1.716,0.104,2.201,0.149c0.481,0.045,0.291-0.248-0.037-0.365
			c-0.317-0.117-1.354-0.19-1.799-0.303c-1.43-0.367-1.086-1.106-0.729-1.039c0.354,0.065,1.608,0.191,2.011,0.291
			c0.41,0.099,0.387-0.38-0.062-0.472c-0.442-0.097-1.73-0.379-1.91-0.435c-0.187-0.05-0.56-0.756,0.477-0.784
			c0.479-0.017,2.101,0.279,2.579,0.324c0.489,0.048,0.41-0.116,0.075-0.313c-0.332-0.197-2.055-0.48-2.562-0.65
			c-0.507-0.169-0.94-0.685-0.152-0.612c0.79,0.082,1.562,0.238,2.225,0.338c0.663,0.098,0.414-0.311,0.054-0.374
			c-0.356-0.065-1.816-0.477-2.312-0.602c-0.5-0.13-0.584-0.656-0.274-0.582c0.321,0.073,2.304,0.542,2.829,0.618
			c0.539,0.083,0.558-0.266,0.011-0.429c-0.551-0.163-2.397-0.653-2.994-0.811c-0.588-0.154-0.471-0.479-0.072-0.42
			c0.396,0.059,2.511,0.462,3.141,0.566c0.623,0.107,0.164-0.416-0.198-0.528c-0.369-0.107-2.313-0.406-2.702-0.639
			c-0.388-0.234-0.397-0.539-0.015-0.343c0.377,0.189,1.385,0.056,1.193-0.082c-0.198-0.139-0.464-0.437-0.157-0.403
			c0.303,0.031,0.731,0.258,1.094,0.325c0.354,0.065,0.334-0.061-0.055-0.294c-0.383-0.235-1.133-0.319-1.5-0.43
			c-0.361-0.103-0.585-0.625-0.232-0.558c0.359,0.068,1.333,0.412,1.963,0.558c0.629,0.147,0.396-0.199-0.045-0.251
			c-0.439-0.053-1.392-0.528-2.189-0.866c-0.789-0.332-0.38-0.495,0.095-0.448c0.487,0.048,1.112,0.409,1.345,0.497
			c0.23,0.09,0.559-0.012,0.055-0.185c-0.51-0.167-1.093-0.538-1.502-0.639c-0.405-0.099-0.462-0.439,0.062-0.399
			c0.527,0.039,1.54,0.418,2.087,0.535c0.539,0.123,0.815-0.228,0.197-0.335c-0.626-0.103-1.979-0.683-2.208-0.734
			c-0.22-0.045-0.371-0.407-0.067-0.377c0.311,0.035,1.18,0.312,1.449,0.349c0.268,0.043,0.525-0.176-0.128-0.235
			c-0.661-0.059-0.885-0.361-1.442-0.565c-0.551-0.206-0.123-0.453,0.187-0.42c0.307,0.031,1.083,0.282,1.583,0.409
			c0.492,0.129,0.259-0.218-0.226-0.304c-0.49-0.083-1.471-0.516-1.866-0.749c-0.377-0.238-0.357-0.322,0.086-0.273
			c0.442,0.049,1.092,0.325,1.682,0.477c0.591,0.153,0.753-0.17,0.34-0.274c-0.407-0.103-1.721-0.689-1.954-0.776
			c-0.229-0.089-0.438-0.312-0.135-0.277c0.31,0.028,0.999,0.253,1.372,0.402c0.374,0.153,0.827-0.19,0.362-0.367
			C38.7,9.849,37.7,9.553,37.237,9.378c-0.467-0.179-0.242-0.395,0.06-0.403c0.297-0.005,1.447,0.396,1.881,0.403
			c0.435,0.01,0.341-0.274-0.095-0.285c-0.436-0.007-1.605-0.539-1.902-0.786c-0.312-0.249-0.132-0.235,0.218-0.212
			c0.351,0.024,0.766,0.172,1.029,0.208c0.264,0.035,0.578-0.148,0-0.219c-0.569-0.069-0.741-0.301-1.145-0.4
			c-0.407-0.103-0.324-0.372-0.156-0.404c0.164-0.03,0.438,0.054,0.623,0.107c0.182,0.051,1.115-0.067,0.442-0.165
			c-0.66-0.1-0.521-0.297-0.904-0.49c-0.382-0.191-0.643-0.19-0.354-0.28c0.283-0.098,0.488,0.044,1.021,0.121
			c0.523,0.078,0.952,0.265,0.858-0.024c-0.095-0.279-0.406-0.097-1.585-0.409c-1.178-0.309-0.801-0.377-0.638-0.664
			c0.115-0.203,0.396-0.092,0.615-0.144c0.593,0.306,1.4,0.153,1.865-0.355c0.144-0.165,0.466-0.428,0.903-0.335
			c0.653,0.133,1.179-0.008,1.605-0.437c0.253-0.254,0.463-0.53,0.661-0.791l0.223-0.273c0.213-0.266,0.467-0.387,0.686-0.327
			c0.214,0.052,0.373,0.268,0.43,0.595c0.072,0.413,0.148,1.135,0.241,1.975c0.094,0.95,0.208,2.03,0.356,3.057
			c0.127,0.866,0.617,0.965,0.767,0.976c0.37,0.024,0.697-0.262,0.825-0.723c0.003-0.021,0.008-0.049,0.015-0.067
			c0.105,0.039,0.292-0.154,0.243-0.272c-0.062-0.151,0.141-0.427,0.229-0.505c0.102-0.079,0.239-0.373,0.188-0.55
			c-0.057-0.176,0.16-0.593,0.354-0.96c0.151-0.288,0.03-0.545-0.068-0.825c0.095-0.287,0.185-0.56,0.276-0.827
			c0.076,0.095,0.197,0.016,0.357,0.12c0.183,0.118,0.64-0.314,0.655-0.52c0.013-0.213,0.377-1.06,0.5-1.293
			c0.094-0.184,0.282-0.664,0.292-1.011c0.568,0.117,1.123,0.047,1.555-0.026c0.171-0.035,0.31,0.012,0.411,0.128
			c0.069,0.083,0.112,0.188,0.136,0.308c0.033,0.147,0.015,0.315-0.037,0.473l-0.154,0.497C50.26,4.818,49.73,6.476,49.485,7.84
			C49.42,8.15,49.42,8.422,49.46,8.664c0.045,0.228,0.122,0.422,0.255,0.583c0.231,0.294,0.583,0.451,1.058,0.471
			c3.334,0.139,5.776,2.625,6.427,6.306c0.123,0.706,0.179,1.464,0.17,2.251c-0.044,2.142-0.183,4.624-0.397,7.037
			c-0.294-0.036-0.593-0.058-0.894-0.051c-0.525,0.015-1.023-0.042-1.476-0.17c-1.38-0.378-2.436-0.397-3.217-0.045
			c0,0-0.033,0.014-0.044,0.019c0.064-0.893,0.085-1.803,0.076-2.583c0.062-0.024,0.144,0.018,0.213,0.01
			c0.188-0.034,0.233,0.195,0.233,0.441c0,0.221,0.011,1.386,0.059,1.648c0.043,0.26,0.279,0.044,0.25-0.123
			c-0.026-0.168,0.017-0.441,0.011-0.904c-0.001-0.467-0.051-1.851-0.097-2.258c-0.035-0.343,0.005-0.806-0.093-1.135
			c-0.1-0.329-0.317-0.1-0.294,0.145c0.027,0.244-0.023,0.574,0.025,0.974c0.044,0.332-0.113,0.152-0.354,0.134
			c-0.017-0.291-0.053-0.57-0.083-0.845c-0.042-0.458-0.106-0.885-0.174-1.293c-0.254-1.42-0.65-2.529-1.184-3.293
			c-0.216-0.315-0.51-0.498-0.805-0.518c-0.04-0.326-0.344-0.283-0.443-0.301c-0.109-0.025-0.333-0.31-0.314-0.423
			c0.024-0.11,0.331-0.318-0.131-0.474c-0.458-0.161-0.43-0.032-0.561,0.097c-0.131,0.13-0.717,0.127-0.403,0.312
			c0.313,0.18,0.879,0.449,0.792,0.555c-0.09,0.101-0.131,0.237-0.339,0.168c-0.205-0.07-0.748-0.193-0.952-0.241
			c-0.202-0.052-0.384,0.155-0.135,0.238c0.256,0.084,0.891-0.065,1.073,0.117c0.067,0.069,0.424-0.021,0.23,1.092
			c-0.116,0.238-2.034,3.394-1.995,3.43c-0.116,0.155-2.586,2.729-2.556,2.895c-0.256,0.246-0.527,0.495-0.812,0.749
			c-0.485,0.438-2.991,3.09-3.43,3.74c-0.144-0.065-0.414-0.165-0.717-0.284C37.085,26.604,37.492,25.593,38.662,25.497z
			 M38.973,29.286c0.942-2.006,2.541-3.603,4.121-5.028c3.142-2.81,4.5-5.003,5.792-7.84c0.055-0.125,0.128-0.178,0.163-0.181
			c0.042-0.003,0.513,0.637,0.565,0.761c-0.074,0.052,0.355,0.907,0.202,1.042c-0.143,0.137-0.327-0.072-0.587-0.18
			c-0.253-0.108-0.337,0.228-0.085,0.421c0.253,0.193,0.769,0.542,0.88,0.661c0.106,0.106,0.212,0.59-0.043,0.527
			c-0.247-0.066-0.84-0.523-1.175-0.808c-0.334-0.292-0.485,0.218-0.294,0.336c0.191,0.116,1.069,0.999,1.377,1.162
			c0.294,0.152,0.085,0.405,0.141,0.798c-1.163,1.276-1.967,2.724-2.441,4.397c-0.033,0.123-0.045,0.25-0.024,0.364
			c0.032,0.165,0.116,0.322,0.254,0.42c0.227,0.178,0.54,0.178,0.813,0.017c0.633-0.38,1.529-0.519,1.935-0.297
			c0.407,0.224,0.802,0.045,1.115-0.093l0.023-0.01c0.6-0.271,1.509-0.239,2.689,0.09c0.529,0.146,1.103,0.213,1.704,0.196
			c0.304-0.01,0.583,0.009,0.864,0.048l1.075,0.301c0.267,0.12,0.525,0.267,0.75,0.445c-0.06,0.126-0.105,0.201-0.259,0.246
			c-0.31,0.086-2.415,0.354-2.413,0.365c-0.144,0.028-0.292,0.053-0.454,0.073c-0.35-0.328-1.237-0.883-1.354-1.084
			c-0.136-0.209-0.428,0.027-0.258,0.193c0.176,0.162,0.763,0.683,0.992,0.925c-0.134,0-0.36,0.008-0.624,0.021
			c-0.019-0.017-0.043-0.03-0.063-0.05c-0.285-0.238-0.698-0.687-0.93-0.931c-0.235-0.246-0.474,0.037-0.25,0.187
			c0.22,0.155,0.547,0.673,0.617,0.796c0.007,0.018,0.007,0.023,0.007,0.03c-0.068,0.007-0.142,0.014-0.21,0.017
			c-0.102-0.023-0.22-0.078-0.294-0.145c-0.174-0.165-0.789-0.678-1.002-0.829c-0.224-0.155-0.536-0.047-0.418,0.074
			c0.113,0.125,0.868,0.611,0.959,0.834c0.032,0.08,0,0.128-0.058,0.157c-0.039,0.003-0.085,0.009-0.13,0.016
			c-0.107-0.009-0.261-0.06-0.38-0.167c-0.283-0.235-0.702-0.693-0.913-0.796c-0.208-0.106-0.31,0.15-0.123,0.354
			c0.18,0.213,0.529,0.339,0.632,0.609c0.02,0.062,0.013,0.114,0,0.159c-0.007,0.005-0.018,0.008-0.018,0.008
			c-0.125,0.032-0.247,0.07-0.364,0.118c-0.053-0.02-0.11-0.05-0.163-0.093c-0.275-0.239-0.483-0.587-0.75-0.73
			c-0.265-0.143-0.537-0.097-0.36,0.11c0.18,0.209,0.856,0.519,0.888,0.706c0.017,0.082-0.01,0.164-0.06,0.212
			c-0.027,0.012-0.046,0.031-0.072,0.042c-0.055,0.007-0.106-0.005-0.165-0.064c-0.167-0.156-0.163-0.109-0.429-0.259
			c-0.27-0.138-0.209,0.425,0.057,0.613c0.017,0.015,0.028,0.025,0.037,0.038c-0.128,0.103-0.256,0.204-0.387,0.324
			c-0.305-0.29-1.008-0.742-1.008-0.742s-0.496-0.102-0.224,0.09c0.272,0.19,0.736,0.633,0.574,0.806
			c-0.162,0.174-0.705-0.213-0.967-0.354c-0.268-0.141-0.434-0.019-0.268,0.14c0.175,0.163,0.939,0.409,1.028,0.68
			c0.1,0.271-0.062,0.439-0.417,0.313c-0.36-0.125-0.77-0.291-1.09-0.474c-0.317-0.184-0.255,0.19-0.092,0.303
			c0.164,0.116,1.034,0.72,0.84,0.949c-0.198,0.228-1.184-0.222-1.463-0.412c-0.271-0.186-0.513,0.047-0.294,0.202
			c0.213,0.152,1.273,0.728,1.075,0.955c-0.2,0.227-1.173-0.417-1.398-0.615c-0.225-0.2-0.391-0.028-0.205,0.179
			c0.176,0.209,1.271,0.729,1.075,0.957c-0.199,0.228-1.476-0.501-1.795-0.683c-0.32-0.188-0.493,0.182-0.182,0.316
			c0.311,0.138,1.88,0.912,1.512,1.263c-0.368,0.35-1.484-0.554-1.959-0.804c-0.474-0.245-0.664,0.021-0.339,0.25
			c0.329,0.235,1.082,0.677,1.301,0.87c0.229,0.2,0.279,0.478-0.142,0.267c-0.417-0.211-1.962-1.09-2.289-1.074
			c-0.338,0.009-0.389,0.259-0.026,0.434c0.371,0.173,1.533,0.536,1.765,0.783c0.24,0.244-0.198,0.228-0.549,0.101
			c-0.364-0.127-1.279-0.728-1.51-0.69c-0.233,0.043-0.58,0.006-0.143,0.265c0.424,0.265,1.375,0.474,1.059,0.577
			c-0.319,0.104-0.968,0.078-1.496,0.078c-0.417,0-2.891,1.734-4.283,2.939c-1.359,0.35-2.266-1.782-0.581-5.058
			C37.608,31.571,38.923,29.375,38.973,29.286z M35.735,40.387c0.095-0.073,0.242-0.116,0.37-0.051
			c0.292,0.151,1.828,0.965,2.074,1.12c0.122,0.07,0.174,0.192,0.122,0.304c-0.062,0.125-0.253,0.208-0.543,0.108
			c-0.259-0.091-0.771-0.381-1.23-0.638c-0.334-0.193-0.66-0.37-0.781-0.416c-0.118-0.045-0.149-0.127-0.149-0.166
			C35.583,40.559,35.637,40.456,35.735,40.387z M34.362,41.586c0.001-0.063,0.048-0.122,0.125-0.152
			c0.098-0.036,0.237-0.017,0.338,0.093l0,0c0.12,0.134,2.568,1.239,2.975,1.344c0.351,0.093,0.333,0.193,0.328,0.229
			c-0.01,0.074-0.121,0.287-0.577,0.266c-0.502-0.018-1.907-0.724-2.695-1.146l-0.481-0.255
			C34.208,41.894,34.358,41.643,34.362,41.586z M40.959,52.593c0.237,0.068,0.269,0.158,0.249,0.229
			c-0.03,0.133-0.319,0.178-0.646,0.1c-0.329-0.073-0.935-0.308-1.427-0.504c-0.279-0.104-0.52-0.2-0.621-0.227
			c-0.15-0.052-0.238-0.163-0.25-0.258c-0.015-0.068,0.008-0.14,0.057-0.18c0.05-0.035,0.149-0.062,0.317,0.026
			C38.941,51.927,40.515,52.456,40.959,52.593z M36.951,65.932c-0.006-0.028,0-0.059,0.019-0.078
			c0.074-0.068,0.356,0.013,2.186,0.707c0.52,0.208,1.028,0.395,1.153,0.423c0.262,0.062,1.704,0.574,1.767,0.809
			c0.028,0.092,0.05,0.215,0,0.305c-0.038,0.066-0.185,0.314-0.281,0.343c-0.176,0.04-1.456-0.461-1.456-0.461
			c-0.864-0.361-2.529-0.919-2.798-0.971c-0.434-0.088-0.58-0.615-0.57-0.845C36.972,66.086,36.975,66.008,36.951,65.932z
			 M42.851,67.631l-0.305-0.178c-0.157-0.077-0.184-0.188-0.184-0.238c0-0.065,0.041-0.132,0.116-0.17
			c0.093-0.047,0.247-0.057,0.409,0.053c0.055,0.042,0.228,0.105,0.386,0.174c0.41,0.168,1.601,0.521,1.615,0.599
			c0.011,0.062-0.002,0.17-0.07,0.248c-0.05,0.068-0.125,0.106-0.205,0.106C44.461,68.238,43.129,67.797,42.851,67.631z
			 M44.426,65.161c-0.022,0.055-0.088,0.144-0.294,0.144c-0.272,0.005-2.517-0.744-2.912-0.871l-0.167-0.053l-0.125-0.025
			c-0.142-0.02-0.307-0.048-0.357-0.308c-0.006-0.092-0.043-0.425,0.047-0.458c0.173-0.083,2.525,0.779,2.795,0.801
			c0.322,0.031,0.62,0.066,0.745,0.161C44.314,64.677,44.453,65.06,44.426,65.161z M43.491,63.354
			c-0.45,0.03-2.896-0.879-3.207-1.063c-0.109-0.062-0.48-0.223-0.902-0.406c-0.99-0.428-1.89-0.783-2.085-0.861
			c-1.055-0.415-2.411-0.491-2.29-1.297c0.02-0.12,0.148-0.444,0.225-0.496c0.049-0.031,0.143-0.06,0.273,0.03
			c0.068,0.045,0.327,0.14,0.608,0.241c0.437,0.154,1.843,0.771,2.333,0.91c0.458,0.135,4.226,1.618,4.4,1.646
			c0.288,0.066,0.558,0.126,0.696,0.274c0.042,0.045,0.073,0.106,0.082,0.163c0.006,0.055,0.008,0.206-0.005,0.268
			C43.581,62.964,43.805,63.325,43.491,63.354z M30.739,53.643c0.029-0.133,0.07-0.381,0.456-0.201
			c0.143,0.066,5.247,1.985,5.467,2.057c0.042,0.017,0.12,0.378,0.102,0.415c-0.035,0.123-0.3,0.194-0.472,0.135l-3.521-1.245
			c-0.962-0.281-1.879-0.579-2.021-0.849C30.676,53.81,30.72,53.729,30.739,53.643z M30.525,58.747c0.229,0,2.08,0.92,2.272,1.071
			c0.429,0.347,0.643,1.465,0.666,1.488c0.148,0.142-1.291-0.428-1.562-0.513c-0.528-0.168-1.404-0.501-1.502-0.644
			c-0.088-0.132-0.126-0.457-0.082-0.533C30.355,59.549,30.317,58.742,30.525,58.747z M30.542,62.269
			c0.044-0.109,0.052-0.647,0.16-0.643c0.065,0.002,2.845,0.827,2.917,0.855c0.558,0.265,0.542,1.354,0.542,1.354
			c-0.044,0.07-0.104,0.104-0.179,0.118c-0.142,0.019-2.317-0.755-2.522-0.802c-0.214-0.043-0.656-0.144-0.761-0.24
			C30.618,62.834,30.499,62.392,30.542,62.269z M32.261,55.76c-0.013-0.095,0.078-0.363,0.238-0.398
			c0.177-0.046,1.808,0.611,2.164,0.761c0.404,0.177,0.661,0.29,0.736,0.354c0.092,0.082,0.106,0.215,0.085,0.307
			c-0.019,0.08-0.067,0.305-0.131,0.319c-0.046,0.019-0.125,0.012-0.216-0.093C34.905,56.783,32.29,55.928,32.261,55.76z
			 M43.111,61.021c0.036,0.175-0.003,0.324-0.112,0.383c-0.125,0.076-4.737-1.645-4.967-1.831c-0.062-0.045-2.166-0.917-2.442-1.144
			c-0.072-0.064,0.133-0.393,0.177-0.447c0.086-0.118,0.266-0.18,0.442-0.068c0.164,0.106,2.383,0.759,2.761,0.914l0.626,0.26
			c0.458,0.206,2.062,0.795,2.254,0.854l0.151,0.033c0.157,0.021,0.349,0.059,0.716,0.243
			C43.124,60.418,43.107,60.964,43.111,61.021z M42.721,59.386c-0.042,0.18-0.374,0.163-0.452,0.118c0,0-4.161-1.648-4.536-1.747
			c-0.602-0.172-1.28-0.298-1.3-0.522c-0.018-0.193,0.225-1.15,1.792-0.466c0.312,0.138,4.052,1.371,4.052,1.371
			c0.297,0.109,0.272,0.471,0.4,0.817C42.677,58.957,42.795,59.066,42.721,59.386z M30.896,46.402
			c0.127-0.222,0.579-0.231,0.722-0.07c0.139,0.158,5.39,2.161,5.867,2.262c0.186,0.033,0.245,0.123,0.263,0.181
			c0.028,0.072-0.019,1.03-0.09,1.104c-0.106,0.118-0.314,0.206-0.531,0.163c-0.412-0.102-5.979-2.489-6.261-2.725
			c-0.065-0.058-0.146-0.142-0.128-0.228C30.751,47.051,30.851,46.477,30.896,46.402z M30.911,48.533
			c0.1,0.054,0.44,0.179,0.708,0.282c0.202,0.078,0.381,0.139,0.448,0.172c0.137,0.066,2.722,1.03,3.632,1.39l0.643,0.252
			c0.132,0.052,0.224,0.187,0.237,0.279c0.005,0.042-0.046,0.337-0.078,0.366c-0.041,0.031,0.066,0.409-0.917,0.109
			c-1.34-0.4-5.4-1.406-5.163-2.567C30.434,48.738,30.818,48.477,30.911,48.533z M40.5,53.98l-0.55-0.149
			c-0.665-0.163-1.574-0.39-1.916-0.581c-0.263-0.155-0.286-0.291-0.258-0.376c0.048-0.146,0.128-0.102,0.422-0.083
			c0.368,0.026,1.16,0.355,1.8,0.497c0.355,0.075,0.616,0.271,0.764,0.321c0.163,0.047,0.261,0.118,0.278,0.193
			c0.013,0.053-0.005,0.106-0.045,0.143C40.911,54.027,40.713,54.037,40.5,53.98z M37.327,47.251
			c-0.191,0.122-2.378-0.811-2.867-0.933c-0.492-0.11-1.88-0.736-2.231-0.897c-0.151-0.073-0.205-0.28-0.205-0.339
			c0.016-0.14,0.229-0.651,0.374-0.693c0.073-0.021,0.399-0.01,0.473,0.087c0.11,0.117,1.75,0.813,2.204,0.922
			c0.261,0.059,0.801,0.279,1.334,0.494c0.421,0.178,0.818,0.339,0.996,0.391c0.149,0.032,0.188,0.107,0.195,0.166
			C37.609,46.558,37.428,47.183,37.327,47.251z M33.309,42.778c0.121-0.007,0.407,0.056,0.453,0.154
			c0.14,0.144,2.263,1.037,3.395,1.504c0.19,0.077,0.56,0.241,0.56,0.337c0,0.306-0.255,0.505-0.555,0.52
			c-0.542,0.022-3.781-1.567-3.969-1.78c-0.078-0.089-0.181-0.274-0.164-0.312C33.06,43.128,33.204,42.778,33.309,42.778z
			 M27.782,32.343c0.282,0.127,2.009,0.816,2.242,0.905c0.235,0.087,0.267-0.176,0.079-0.272c-0.191-0.097-1.262-0.775-1.596-0.935
			c-0.333-0.156,0.134-0.242,0.315-0.183c0.183,0.052,1.003,0.295,1.243,0.385c0.226,0.09,0.453-0.125,0.304-0.225
			c-0.138-0.1-0.294-0.295-0.682-0.531l0,0c0.742-0.167,1.157-0.536,1.433-1.231c0.164-0.431,0.271-0.76,0.447-1.298l0,0
			c0.209-0.647,0.622-0.914,0.94-0.892c0.353,0.024,0.629,0.385,0.726,0.938c0.368,2.081,0.384,4.271,0.402,6.391
			c0.005,1.367,0.017,2.657,0.116,3.86c-0.626,0.497-1.21,1.057-1.751,1.67l-0.017-0.038c0,0-0.17,0.026-0.515,0.042
			c-0.344,0.019-0.624-0.316-0.367-0.365c0.25-0.043,0.463-0.299,0.25-0.31c-0.221,0-0.358-0.062-0.81-0.155
			c-0.449-0.096-0.423-0.402-0.206-0.444c0.207-0.036,0.539,0.123,0.829,0.292c0.29,0.164,0.696-0.256,0.247-0.351
			c-0.455-0.091-1.094-0.539-1.634-0.619c-0.532-0.083-0.695-0.488-0.283-0.386c0.408,0.103,0.984,0.176,1.514,0.21
			c0.525,0.041,0.327-0.322,0.054-0.401c-0.274-0.079-1.255-0.253-1.674-0.396c-0.417-0.144-0.343-0.459-0.038-0.474
			c0.299-0.007,1.602,0.46,1.962,0.563c0.365,0.11,0.52-0.262-0.118-0.412c-0.631-0.151-1.805-0.635-2.034-0.725
			c-0.232-0.083-0.277-0.342,0.12-0.282c0.407,0.058,1.5,0.384,1.728,0.435c0.224,0.048,0.327-0.105-0.118-0.199
			c-0.454-0.093-1.419-0.655-1.876-0.746c-0.447-0.103-0.374-0.413-0.057-0.344c0.321,0.078,1.514,0.473,1.878,0.537
			c0.357,0.07,0.437-0.208-0.148-0.315c-0.585-0.117-1.73-0.696-2.14-0.839c-0.416-0.143-0.342-0.46,0.062-0.355
			c0.41,0.097,1.15,0.577,1.492,0.558c0.345-0.017,0.22-0.211-0.046-0.249c-0.264-0.046-1.143-0.582-1.379-0.716
			c-0.24-0.126-0.135-0.233,0.035-0.266c0.166-0.031,0.658,0.275,0.88,0.32c0.225,0.042,0.404-0.2,0.086-0.274
			c-0.324-0.068-0.944-0.398-1.262-0.475c-0.309-0.07-0.23-0.345-0.002-0.292c0.226,0.041,1.01,0.337,1.326,0.409
			c0.32,0.072,0.335-0.057,0.02-0.135c-0.315-0.07-1.505-0.686-1.941-0.914C27.387,32.585,27.496,32.226,27.782,32.343z
			 M31.273,51.083c2.137,0.531,4.089,1.495,5.374,1.962c1.023,0.366,0.347,0.658,0.626,0.811c0.345,0.182,1.026,0.463,2.047,0.819
			c0.93,0.321,1.805,0.627,2.029,0.755c0.231,0.134,0.278,0.566,0.266,0.683c-0.006,0.09-0.051,0.156-0.123,0.191
			c-0.09,0.033-0.213,0-0.311-0.1c-0.158-0.142-1.361-0.553-2.522-0.949c-1.125-0.391-2.292-0.792-2.654-0.993
			c-0.416-0.225-1.048-0.419-1.6-0.587c-0.46-0.148-0.906-0.275-1.174-0.425c-0.781-0.433-1.747-0.601-2.536-1.072
			C30.588,52.113,30.774,50.96,31.273,51.083z M26.984,58.99c0.171-0.07-0.035-0.425-0.331-0.633
			c-0.291-0.213-0.623-0.846-0.379-0.671c0.251,0.174,0.945,0.654,1.241,0.865c0.296,0.205,0.524-0.005,0.082-0.274
			c-0.437-0.272-1.173-1.01-1.43-1.223c-0.251-0.213-0.398-0.796-0.156-0.618c0.249,0.167,1.097,0.798,1.309,1.019
			c0.211,0.224,0.339-0.055,0.172-0.244c-0.164-0.194-0.949-0.846-1.387-1.229c-0.751-0.657-0.531-1.768-0.264-1.728
			c0.238,0.035,1.936,1.485,2.24,1.741c0.2,0.158,0.37-0.071,0.095-0.368c-0.287-0.312-1.846-1.647-2.061-1.818
			c-0.603-0.472-0.424-1.276-0.408-1.335c0.06-0.125,0.261-0.316,0.388-0.219c0.248,0.167,1.514,1.422,1.677,1.611
			c0.159,0.182,0.38-0.076,0.126-0.244c-0.248-0.172-1.099-1.061-1.408-1.349c-0.314-0.301-0.003-0.53,0.279-0.404
			c0.279,0.123,1.257,1.212,1.536,1.331c0.28,0.13,0.235-0.121,0.088-0.228c-0.15-0.106-1.768-1.645-1.969-1.822
			c-0.101-0.087-0.292-0.246-0.169-0.478c0.186-0.342,0.226-0.626,0.726-0.317c0.151,0.098,0.503,0.39,0.658,0.537
			c0.148,0.145,0.34-0.019,0.176-0.208c-0.164-0.184-0.865-0.713-1.071-0.891c-0.201-0.182-0.095-0.55,0.249-0.352
			c0.335,0.201,1.214,1.007,1.321,1.12c0.109,0.109,0.563,0.021,0.225-0.22c-0.351-0.241-1.769-1.655-1.802-1.808
			c-0.088-0.422-0.14-2.019,0.08-1.794c0.212,0.229,0.785,0.517,1.149,0.88c0.368,0.371,0.233-0.169,0.01-0.432
			c-0.17-0.211-1.289-1.007-1.837-1.959c-0.053-0.144-0.108-0.287-0.165-0.418c-0.608-1.464,0.021-2.844,1.262-3.388
			c0.467-0.12,0.952-0.098,1.342,0.023c0.325,0.105,0.479,0.345,0.468,0.472c-0.016,0.115-0.197,0.21-0.478,0.241
			c-0.7,0.073-1.254,0.427-1.53,0.975c-0.238,0.473-0.228,1.025,0.02,1.446c0.249,0.417,0.495,0.771,0.847,1.269l0.771,1.104
			c1.095,1.61,1.235,4.165,1.017,5.869c-0.11,0.879-0.267,2.087-0.027,3.661c0.236,1.569,0.025,2.776-0.663,3.812
			c-0.239,0.359-0.534,0.565-0.822,0.572c-0.117,0.002-0.562-0.188-0.736-0.383C27.187,60.193,26.446,59.227,26.984,58.99z
			 M31.567,82.062c-0.137,0.057-0.27,0.163-0.388,0.302c-0.221,0.263-0.786,0.653-1.319,0.469l-0.053-0.137
			c-0.073-0.253,0.1-0.605,0.372-0.565c0.267,0.04,0.866-0.241,0.9-0.368c0.039-0.123,0.485-0.232,0.488-0.029
			C31.577,81.806,31.582,81.929,31.567,82.062z M35.528,85.398c-0.093,0.068-0.392,0.052-0.726-0.207l-0.083-0.066
			c0.043-0.152,0.208-0.326,0.377-0.398c0.19,0.146,0.366,0.309,0.422,0.465C35.538,85.224,35.583,85.354,35.528,85.398z
			 M35.201,80.768c-0.097,1.051,0.317,2.254,0.341,3.321c-0.124-0.082-0.234-0.171-0.346-0.243l-0.298-0.21
			c-0.216-0.166-5.449-4.54-5.821-4.107c-0.056,0.066-0.125,0.156-0.204,0.26c0,0,0.286-0.535,0.094-0.669
			c-0.188-0.132-0.039-0.797,0.088-0.983c0.133-0.191,0.216,0.005,0.527,0.113c0.311,0.113,0.185-0.227,0.04-0.323
			c-0.14-0.106-0.404-0.182-0.555-0.314c-0.148-0.143-0.165-0.476,0.026-0.343c0.187,0.136,0.377,0.137,0.643,0.259
			c0.274,0.12,0.183-0.156-0.008-0.292c-0.188-0.133-0.479-0.24-0.724-0.446c-0.238-0.211-0.093-0.53,0.147-0.364
			c0.237,0.169,0.607,0.354,0.977,0.577c0.372,0.22,0.265-0.286,0.003-0.364c-0.261-0.077-0.749-0.47-0.952-0.582
			c-0.307-0.181-0.537-0.991,0.033-0.938c0.404,0.033,0.682,0.31,1.039,0.469c0.339,0.144,0.435-0.169,0.141-0.405
			c-0.29-0.246-0.899-0.609-1.225-0.798c-0.385-0.212-0.232-0.858,0.148-0.827c0.177,0.016,0.49,0.16,0.719,0.285
			c0.23,0.127,0.354-0.106,0.168-0.234c-0.193-0.139-0.521-0.307-0.715-0.434c-0.185-0.136-0.202-0.778,0.169-0.549
			c0.366,0.223,0.475,0.223,0.796,0.336c0.31,0.11,0.232-0.232,0.095-0.334c-0.145-0.1-0.698-0.297-0.936-0.467
			c-0.239-0.163-0.142-0.538,0.138-0.379c0.273,0.163,0.641,0.32,0.887,0.43c0.27,0.12,0.551-0.087,0.358-0.214
			c-0.189-0.143-0.448-0.365-0.666-0.44c-1.12-0.39-0.643-4.297,1.377-2.782c0.456,0.344,2.218,2.485,2.784,2.396
			C35.292,71.051,35.223,80.559,35.201,80.768z M31.841,65.951c-0.255-0.062-0.867-1.374-0.542-1.442
			c0.274-0.062,2.581,0.792,3.102,0.905c0.898,0.198,0.879,1.581,0.407,1.499C34.171,66.802,32.196,66.041,31.841,65.951z
			 M44.237,76.328c-0.206-0.063-3.394-1.373-3.69-1.596c-0.294-0.226-0.11-0.976,0.472-0.758c0.223,0.083,3.255,1.283,3.534,1.396
			C46.023,75.962,45.839,76.812,44.237,76.328z M38.298,69.29c-0.354-0.085-0.706-0.371-0.837-0.679
			c-0.062-0.14,0.187-0.562,1.122-0.248c0.324,0.113,1.556,0.601,2.273,0.773l0.475,0.128l0.31,0.097
			c0.286,0.094,2.161,0.756,2.304,0.811c0.474,0.203,2.031,0.732,2.45,0.844c0.144,0.038,0.167,0.435,0.101,0.646
			C46.263,72.427,38.637,69.368,38.298,69.29z M52.204,89.85c-0.547-0.039-2.111,0.376-2.681,0.529
			c-0.566,0.153-0.592-0.243-0.546-0.509c0.042-0.263,0.58-0.761,0.967-0.986c0.389-0.222,1.188-0.672,1.447-0.418
			c0.542,0.537,0.947,0.57,1.532,0.983C53.522,89.856,52.751,89.887,52.204,89.85z M56.631,90.266
			c-0.005,0.403-0.927,0.564-1.354,0.642c-0.422,0.076-1.351-0.413-1.747-0.664c-0.408-0.257,0.13-0.714,0.379-0.891
			c0.324-0.22,0.778-0.044,1.046,0.06c0.203,0.077,0.909-0.104,1.173,0.012C56.397,89.539,56.645,89.85,56.631,90.266z
			 M54.319,88.279c-0.383,0.104-0.686,0.151-0.987,0.121c0.082-0.139,0.118-0.302-0.081-0.345c-0.37-0.072-1.065-0.629-1.208-0.816
			c-0.143-0.196-0.1,0.056-0.351-0.009c-0.259-0.059-0.532-0.071-1.062,0c-0.534,0.071-0.53-2.381-0.542-2.748
			c-0.007-0.329,0.563-1.18,1.603-1.02c0.51,0.08,0.971-0.16,0.994-0.484c0.014-0.17-0.088-0.947,0.097-0.936
			c0.851,0.059,0.469-0.71,0.555-1.012c0.666-0.007,1.341-0.038,2.021-0.104c0.056,0.019,0.126,0.04,0.188,0.057
			c0.081,0.358,1.132,5.459,1.529,7.375C56.147,87.894,55.081,88.079,54.319,88.279z M69.428,53.108
			c0.015-0.085,0.028-0.168,0.036-0.253C69.456,52.94,69.442,53.023,69.428,53.108z M69.473,52.772
			c0.012-0.063,0.017-0.123,0.021-0.18C69.489,52.649,69.484,52.709,69.473,52.772z M69.506,52.484
			c0.005-0.052,0.005-0.111,0.005-0.158C69.511,52.373,69.511,52.433,69.506,52.484z M69.517,52.208
			c0.01-0.052,0.01-0.1,0.014-0.146C69.527,52.108,69.527,52.156,69.517,52.208z M69.402,49.935
			c-0.017-0.102-0.03-0.194-0.045-0.291C69.373,49.74,69.386,49.833,69.402,49.935z M69.532,51.934c0-0.05,0.003-0.102,0.003-0.153
			C69.536,51.832,69.532,51.884,69.532,51.934z M69.536,51.657c0-0.052,0-0.106-0.003-0.166
			C69.536,51.551,69.536,51.605,69.536,51.657z M69.532,51.376c0-0.06-0.001-0.109-0.005-0.161
			C69.531,51.267,69.532,51.317,69.532,51.376z M69.517,51.087c-0.005-0.052-0.006-0.108-0.006-0.163
			C69.511,50.979,69.512,51.036,69.517,51.087z M69.506,50.804c-0.012-0.057-0.012-0.115-0.017-0.172
			C69.494,50.688,69.494,50.747,69.506,50.804z M69.474,50.513c-0.001-0.059-0.01-0.123-0.019-0.188
			C69.464,50.39,69.473,50.455,69.474,50.513z M69.442,50.23c-0.015-0.085-0.023-0.173-0.033-0.253
			C69.419,50.057,69.428,50.145,69.442,50.23z M68.312,46.305c-0.039-0.071-0.063-0.138-0.101-0.206
			C68.249,46.167,68.274,46.234,68.312,46.305z M69.338,49.559c-0.014-0.073-0.03-0.139-0.039-0.206
			C69.309,49.419,69.324,49.485,69.338,49.559z M69.273,49.24c-0.01-0.066-0.019-0.123-0.037-0.185
			C69.254,49.117,69.264,49.173,69.273,49.24z M69.214,48.937c-0.012-0.059-0.037-0.118-0.046-0.175
			C69.177,48.819,69.202,48.878,69.214,48.937z M69.137,48.64c-0.011-0.055-0.031-0.11-0.037-0.165
			C69.105,48.53,69.125,48.585,69.137,48.64z M69.057,48.349c-0.008-0.061-0.026-0.114-0.043-0.17
			C69.031,48.234,69.049,48.288,69.057,48.349z M68.972,48.054c-0.01-0.055-0.031-0.109-0.045-0.167
			C68.941,47.944,68.962,47.999,68.972,48.054z M68.889,47.764c-0.026-0.052-0.039-0.107-0.057-0.166
			C68.851,47.656,68.863,47.711,68.889,47.764z M68.789,47.481c-0.017-0.065-0.038-0.119-0.062-0.173
			C68.751,47.363,68.772,47.416,68.789,47.481z M68.691,47.193c-0.029-0.062-0.052-0.12-0.077-0.178
			C68.639,47.073,68.662,47.131,68.691,47.193z M68.574,46.92c-0.027-0.076-0.055-0.155-0.09-0.221
			C68.519,46.765,68.547,46.844,68.574,46.92z M68.46,46.639c-0.038-0.091-0.08-0.186-0.125-0.274
			C68.381,46.453,68.422,46.548,68.46,46.639z M67.577,44.974c-0.032-0.048-0.062-0.094-0.098-0.14
			C67.515,44.88,67.545,44.926,67.577,44.974z M68.167,46.001c-0.033-0.055-0.057-0.117-0.09-0.167
			C68.11,45.885,68.133,45.941,68.167,46.001z M68.023,45.728c-0.03-0.051-0.062-0.102-0.086-0.15
			C67.962,45.626,67.994,45.677,68.023,45.728z M67.874,45.47c-0.025-0.05-0.053-0.097-0.082-0.148
			C67.821,45.373,67.849,45.419,67.874,45.47z M67.729,45.221c-0.027-0.052-0.059-0.096-0.091-0.145
			C67.67,45.125,67.702,45.169,67.729,45.221z M68.764,52.874c-0.904,5.523,1.8,9.771,4.427,13.868l0.073,0.111
			c0.462,0.742,1.056,2.094,1.187,2.529c0.141,0.432,0.215,1.701,0.165,2.256c-0.057,0.555-0.944,2.452-1.157,2.789
			c-0.215,0.353-0.745,0.957-1.119,1.271c-0.083,0.073-3.555,5.88-19.8,4.387c-1.346-0.414-1.637-1.438-1.743-1.771
			c-0.103-0.328-2.06-1.217-2.505-1.264c-0.452-0.057-0.382-0.414-0.047-0.521c0.33-0.1-0.319-0.419-0.707-0.576
			c-1.639-0.664-0.8-1.744-0.336-1.571c0.474,0.184,2.155,0.765,2.745,0.838c0.581,0.073,0.163-0.297-0.065-0.387
			c-0.24-0.088-1.592-0.461-1.972-0.663c-1.52-0.778,0.094-1.693,0.685-1.608c0.229,0.03,1.829,0.421,2.388,0.588
			c0.56,0.166,0.28-0.14-0.229-0.312c-0.516-0.172-0.747-0.264-1.355-0.465c-0.606-0.197-0.005-0.257,0.167-0.29
			c0.169-0.03,1.278,0.293,1.192,0.1c-0.125-0.279-0.931-0.492-1.728-0.82c-0.879-0.355-3.912-3.746,0.726-2.473
			c0.438,0.123,0.525-0.447,0.334-0.546c-0.19-0.092-2.654-1.099-3.066-1.212c-1.194-0.331-1.258-1.627-1.022-1.537
			c0.234,0.093,2.361,0.945,2.674,0.934c0.301-0.007,0.323-0.451,0.038-0.578c-0.287-0.128-2.105-0.804-2.427-0.882
			c-0.325-0.075-0.742-0.3-0.638-0.492c0.093-0.191-0.244-0.144-0.568-0.484c-0.325-0.342,0.077-0.541,0.686-0.342
			c0.609,0.203,0.308-0.268,0.107-0.402c-0.205-0.145-0.742-0.437-1.077-0.825c-0.361-0.421-0.485-1.278-0.673-1.598
			c-0.193-0.318,0.286-0.097,0.645-0.07c0.355,0.023,0.092-0.238-0.327-0.336c-0.409-0.104-0.495-0.35-0.638-0.638
			c-0.13-0.281,0.655-0.026,1.008-0.045c0.346-0.019,0.151-0.116-0.233-0.308c-0.387-0.2-0.728-0.396-0.728-0.619
			c0.01-0.22,0.386,0.014,0.961-0.038c0.452-0.04,0.197-0.33-0.133-0.443c-0.327-0.116-0.662-0.076-1.002-0.284
			c-0.345-0.196-0.178-0.333-0.223-0.591c-0.052-0.258,0.24-0.286,0.638-0.267c0.402,0.014,0.58-0.088,0.532-0.208
			c-0.117-0.296-0.79-0.254-1.007-0.259c-0.226-0.009-0.497-0.332-0.306-0.493c0.187-0.163-0.098-0.549-0.293-0.657
			c-0.195-0.087,0.256-0.252,0.437-0.243c0.18,0.02,0.22-0.603-0.474-0.489c-0.735,0.123-0.285-0.564-0.31-1.222
			c-0.027-0.654,0.168-0.558-0.05-0.822c-0.226-0.271-1.035,0.663-0.916,0.073c0.115-0.596-0.259-0.742-0.364-0.815
			c-0.096-0.068-0.026-0.396-0.175-0.499c-0.153-0.102-2.09-0.638-2.608-0.854c-0.525-0.215,0.057-1.112,1.178-0.815
			c0.448,0.118,1,0.231,1.033-0.106c0.021-0.213-0.359-0.246-1.205-0.577c-0.845-0.327-0.602-1.093,0.325-1.047
			c0.389,0.019,0.58-0.176,0.47-0.337c-0.118-0.153-0.54-0.1-0.864-0.267c-0.547-0.286-1.117-1.986,0.339-1.789
			c0.288,0.04,0.434-0.286,0.017-0.392c-0.414-0.097-0.417-0.137-0.698-0.221c-0.279-0.083,0.064-1.372,0.359-1.428
			c0.302-0.05,0.602,0.163,0.933,0.276c0.327,0.117,0.368-0.154,0.072-0.318c-0.293-0.172-0.543-0.344-0.786-0.48
			c-0.244-0.125,0.058-0.216,0.248-0.38c0.19-0.158,0.7,0.167,1.146,0.315c0.43,0.143,0.485-0.312,0.045-0.552
			c-0.258-0.139-1.083-0.322-1.071-0.542c0-0.219,0.03-0.8,0.294-0.8c0.266-0.002,1.104,0.229,1.104,0.229s0.435-0.43,0.008-0.56
			c-0.22-0.07-0.28,0.042-1.007-0.307c-0.595-0.287-0.021-0.941,0.299-0.876c0.204,0.038,1.142,0.349,1.708,0.246
			c0.59-0.106,0.416-0.492,0-0.638c-0.424-0.145-1.553-0.393-1.94-0.587c-0.382-0.194,0.335-1.401,0.841-1.561
			c0.54-0.17,1.929-1.277,3.208,0.424c0.231,0.314,0.904,0.573,1.153,0.749c0.251,0.171,1.192,0.753,1.379,1.068
			c0.18,0.319,0.653,0.258,1.185,0.01c0.278-0.123-0.222-0.849-0.932-1.668c-0.396-0.124-0.788-0.272-0.921-0.383
			c-0.287-0.222-1.209-1.482-1.071-1.751l0,0c-0.346-0.348-0.572-0.571-0.572-0.571l-0.785-0.673
			c2.33-0.406,5.003-0.098,8.107,0.896c0,0,4.771,5.298,4.837,5.413c0.072,0.113,0.808,0.355,1.007,0.186
			c0.197-0.15-0.057-1.028-0.459-1.028c-0.394-0.001-0.825-1.336-1.085-1.618c-0.241-0.277-2.041-2.316-2.295-2.645
			c-0.255-0.328,0.193-0.331,0.375-0.112c0.189,0.209,0.776,0.729,0.953,0.621c0.179-0.103-0.067-0.233-0.408-0.643
			c-0.346-0.409,0.265-0.048,0.301-0.276c0.001-0.015,0-0.03-0.008-0.042c1.575,0.211,3.211,0.853,4.798,1.906
			c2.325,1.547,4.27,3.793,5.188,6.004l0.037,0.089l0.078,0.061C68.034,45.393,69.237,49.941,68.764,52.874z M69.572,45.006
			c0.002,0.086,0.01,0.175,0.012,0.256c-0.198-0.112-0.394-0.217-0.582-0.326c-0.163-0.553-1.051-1.597-1.246-1.753
			c-0.201-0.163,0.181-0.496,0.751-0.068C69.076,43.537,69.567,44.625,69.572,45.006z M67.852,36.111
			c-0.443-0.005-0.834,0.415-0.712,0.771c0.122,0.354,0.052,1.108,0.01,1.402c-0.03,0.3,0.372,0.899,0.565,1.016
			c0.194,0.111,0.377,0.811,0.159,0.907c-0.218,0.099-0.532,0.151-0.422,0.454c0.118,0.307-0.136,0.728-0.252,0.545
			c-0.118-0.187-0.188-0.406-0.311-0.795c-0.135-0.387-0.415-0.51-0.285-0.123c0.123,0.389,0.171,0.64,0.293,1.024
			c0.128,0.393-0.189,0.564-0.307,0.085c-0.11-0.473-0.507-0.904-0.574-1.271c-0.065-0.369-0.307-0.241-0.21,0.126
			c0.093,0.363-0.191,0.563-0.34,0.088c-0.141-0.474-0.62-1.853-0.743-2.238c-0.13-0.388-0.437-0.338-0.351-0.142
			c0.088,0.185,0.135,0.555,0.159,0.731c0.029,0.167-0.264,0.455-0.327,0.087c-0.075-0.368-0.3-0.823-0.35-1.115
			c-0.051-0.278-0.606-0.618-0.457-0.265c0.154,0.351,0.097,0.568,0.111,0.974c0.014,0.411-0.246,0.103-0.309-0.09
			c-0.059-0.196-0.216-0.551-0.287-0.8c-0.07-0.251-0.353-0.492-0.311-0.266c0.044,0.229,0.08,0.453-0.102,0.4
			c-0.186-0.058-0.218-0.402-0.287-0.623c-0.072-0.224-0.328-0.88-0.447-1.21c-0.12-0.33-0.487-0.413-0.357-0.206
			c0.126,0.214,0.169,0.792,0.248,1.073c0.073,0.275-0.381,0.158-0.45-0.038c-0.062-0.195-0.52-1.165-0.655-1.409
			c-0.133-0.238-0.396-0.069-0.243,0.134c0.158,0.21,0.296,0.68,0.378,0.962c0.085,0.276-0.384-0.172-0.494-0.295
			c-0.11-0.128-0.45-0.74-0.557-1.022c-0.106-0.271-0.487-0.233-0.323,0c0.151,0.241,0.111,0.306,0.228,0.64
			c0.12,0.331-0.415-0.045-0.503-0.175c-0.077-0.133-0.55-0.988-0.622-1.208c-0.063-0.225-0.435-0.015-0.247,0.25
			c0.192,0.258,0.116,0.476,0.214,0.69c0.098,0.219-0.536-0.171-0.622-0.354c-0.091-0.19-0.503-0.855-0.724-1.282
			c-0.218-0.424-0.286,0.027-0.196,0.211c0.09,0.193,0.297,0.528,0.347,0.82c0.05,0.281-0.241,0.126-0.324-0.002
			c-0.078-0.135-0.326-0.705-0.417-0.89c-0.095-0.191-0.62-0.362-0.266,0.308c0.354,0.668,0.1,0.563-0.104,0.573
			c-0.208,0.009-0.45-0.24-0.45-0.24s-0.169-0.442-0.255-0.745c-0.082-0.311-0.324-0.18-0.241-0.044
			c0.083,0.13,0.014,0.403,0.063,0.684c0.052,0.291-0.307,0.086-0.329-0.052c-0.028-0.146-0.282-0.625-0.368-0.73
			c-0.076-0.103-0.342-0.11-0.225,0.015c0.106,0.127,0.14,0.324,0.156,0.582c0.017,0.262-0.038,0.272-0.15,0.147
			c-0.108-0.126-0.383-0.339-0.58-0.629c-0.196-0.288-0.559,0.152-0.724,0.188c-0.177,0.028-0.655-0.561-0.764-0.655
			c-0.108-0.097-0.293-0.01-0.209,0.152c0.091,0.161,0.405,0.43,0.318,0.616c-0.083,0.194,0.043,0.55-0.279,0.58
			c-0.315,0.028-0.687-0.583-1.04-0.607c-0.363-0.025-0.792,0.023-0.922,0.278c-0.002,0.005-0.009,0.007-0.009,0.012
			c-0.352-0.074-0.694-0.138-1.042-0.188c-0.324-0.123-0.628-0.256-0.758-0.292c-0.221-0.062-0.207-0.142-0.123-0.344
			c6.145-2.943,14.974-3.175,22.315,2.751c-0.071,0.015-0.154,0.037-0.225,0.052c-0.187-0.136-0.687-0.17-0.899-0.189
			C69.1,35.892,68.295,36.124,67.852,36.111z M70.811,37.357c-0.233,0.161-0.419,0.376-0.552,0.64
			c-0.216,0.443-0.271,0.996-0.157,1.647c0.074,0.388,0.197,0.81,0.382,1.266c0.276,0.681,0.457,1.279,0.548,1.796
			c0.076,0.427,0.083,0.796,0.038,1.104c-0.033,0.211-0.03,0.388,0,0.558c0.067,0.412,0.292,0.742,0.499,1.052
			c0.211,0.312,0.507,0.768,0.631,1.037c0.02,0.037,0.029,0.06,0.034,0.092c0.005,0.036,0,0.061-0.005,0.076
			c-0.023,0.005-0.264-0.052-0.397-0.125c-0.302-0.168-0.806-0.711-1.174-1.322c-0.136-0.259-0.229-0.497-0.273-0.775
			c-0.02-0.122,0.003-0.562,0.037-0.648c0.295-0.82-0.602-2.59-0.767-2.854c-0.105-0.168-0.389-0.588-0.555-0.942
			c-0.04-0.155-0.393-1.31,0.159-1.915c0.233-0.254,0.832-0.656,1.163-0.83C70.699,37.059,70.799,37.158,70.811,37.357z"/>
		<path clip-path="url(#SVGID_2_)" fill="#FFFFFF" d="M53.006,35.442c-0.012-0.012-0.023-0.025-0.032-0.029
			c-0.035-0.055-0.249-0.154-0.56-0.29c-0.782-0.391-1.622-0.7-2.493-0.923c-0.385-0.126-0.701-0.21-0.845-0.231
			c-0.163-0.019-0.468-0.049-0.848-0.087c-0.347-0.046-0.691-0.077-1.047-0.091c-0.738-0.057-1.5-0.091-1.952-0.033
			c-0.192,0.02-0.465,0.086-0.776,0.174c-1.309,0.202-2.558,0.606-3.642,1.225c-0.015,0.008-0.032,0.019-0.048,0.022
			c-0.624,0.361-1.188,0.786-1.686,1.283c-0.479,0.475-1.038,0.69-1.489,0.85c-2.958,1.053-5.813,3.024-7.164,6.433
			c-0.082,0.208,0.119,0.31,0.218,0.155c1.799-2.957,4.776-4.764,7.198-5.492c0.712-0.209,1.063,0.295,1.11,0.815
			c0.115,1.123,0.194,2.074,0,2.718c-0.187,0.653-0.477,1.272-0.717,1.891c-0.244,0.61-0.4,1.517-0.312,2.336
			c0.186,1.678,0.539,3.84-0.648,5.916c-0.167,0.288,0.04,0.463,0.306,0.208c1.464-1.404,1.511-3.62,1.344-5.775
			c-0.06-0.862,0.125-1.633,0.394-2.118c0.811-1.519,1.229-2.549,1.152-3.822c-0.048-0.736-0.054-1.524-0.123-2.172
			c-0.075-0.649,0.14-1.099,0.488-1.447c0.488-0.488,1.532-1.102,2.387-1.257c0.597-0.104,0.925,0.22,1.201,0.67
			c1.228,1.972,2.738,2.93,5.108,3.835c0.935,0.358,1.132,0.94,1.019,1.796c-0.113,0.849-0.205,1.771-1.074,2.562
			c-1.517,1.365-2.456,2.761-2.896,4.242c-0.167,0.558-0.649,1.201-1.419,1.4c-2.82,0.708-4.505,2.749-3.605,5.095
			c0.748,1.952,1.082,2.727,1.445,4.28c0.362,1.563,1.027,3.944,1.592,5.518c0.865,2.439,1.911,4.562,2.762,5.708
			c0.229,0.307,0.465,0.097,0.293-0.232c-1.158-2.164-2.315-5.476-2.781-7.366c-0.063-0.253,0.083-0.546,0.396-0.513
			c0.941,0.1,3.286,0.694,5.001,1.484c0.285,0.139,0.454-0.165,0.16-0.333c-1.648-0.947-4.151-1.898-5.43-2.155
			c-0.341-0.071-0.521-0.476-0.614-0.898c-0.373-1.671-0.725-3.661-1.534-5.7c-0.498-1.238-0.046-2.037,0.764-2.688
			c0.503-0.395,1.675-0.792,2.151-0.771c0.138,0,0.25,0.03,0.349,0.085c0.068,0.073,0.151,0.156,0.225,0.213
			c0.072,0.109,0.12,0.218,0.157,0.362c0.288,1.134,0.974,2.502,1.79,3.412c0.82,0.907,1.232,1.671,1.448,2.465
			c0.127,0.456,0.41,0.412,0.38-0.063c-0.048-0.785-0.462-1.894-1.153-2.829c-0.7-0.924-1.31-2.184-1.484-3.122
			c-0.162-0.936-0.017-1.699,0.209-2.541c0.46-1.657,1.682-3.195,2.724-3.991c1.052-0.8,1.805-2.215,1.675-3.942
			c-0.035-0.434,0.495-0.7,0.769-0.133c0.848,1.753,2.014,3.195,3.295,4.01c3.177,2.019,3.307,5.016,0.673,6.735
			c-3.471,2.249-3.382,5.291-1.848,8.12c0.697,1.276,1.158,1.891,1.615,2.517c0.461,0.619,0.517,1.347,0.185,2.023
			c-0.994,1.987-0.953,4.069,0.1,5.542c0.781,1.089,1.281,1.999,1.505,2.543c0.208,0.493,0.531,0.376,0.394-0.072
			c-0.287-1.001-0.931-2.107-1.316-2.812c-0.602-1.122-0.423-3.098-0.058-3.968c0.29-0.697,0.55-1.212,0.72-1.593
			c0.161-0.384,0.527-0.591,0.829-0.258c0.732,0.799,1.312,2.105,1.687,2.914c0.375,0.815,0.98,1.162,1.543,1.428
			c1.277,0.591,2.545,1.479,2.921,2.643c0.13,0.385,0.406,0.222,0.346-0.057c-0.316-1.476-1.376-2.165-2.714-3.097
			c-0.804-0.556-1.156-0.847-1.458-1.609c-0.633-1.595-0.936-3.011-2.18-3.72c-0.781-0.449-1.314-0.561-1.785-1.148
			c-1.351-1.693-2.072-3.437-1.972-4.862c0.102-1.42,1.158-2.685,2.479-3.535c1.522-0.974,2.455-2.491,2.376-4.115
			c-0.026-0.462,0.407-0.657,0.839-0.557c1.583,0.363,3.403,1.382,3.89,4.111c0.077,0.452,0.492,0.327,0.449-0.078
			c-0.15-1.441-0.537-3.755-3.152-4.829c-0.253-0.161-0.494-0.283-0.651-0.276c-0.05,0.005-0.109,0.007-0.167,0.007
			c-0.188-0.044-0.381-0.087-0.581-0.134c-0.48-0.082-0.978-0.08-1.289-0.645c-0.693-1.285-1.705-2.041-2.689-2.625
			c-0.98-0.591-1.73-1.75-2.418-2.971c-0.684-1.226-1.331-2.115-2.674-2.225c-2.296-0.172-4.271-1.079-5.607-2.879
			c-0.227-0.314-0.065-0.754,0.454-0.725c3.338,0.185,5.35,0.845,7.198,2.488c1.299,1.149,2.15,2.349,2.998,3.555
			c1.422,2.038,3.452,2.394,5.731,2.385c2.439-0.008,4.053,0.935,5.249,4.064c0.889,2.342,1.037,4.443-0.099,6.133
			c-1.09,1.619-1.341,3.526-0.929,5.261c0.261,1.065,0.139,1.673,0.375,2.746c0.248,1.07,0.929,2.222,1.956,3.327
			c0.705,0.752,0.951,1.366,1.16,2.286c0.222,0.914,0.533,1.761,1.19,2.493c0.194,0.211,0.488,0.026,0.277-0.26
			c-0.211-0.282-0.688-1.153-0.801-2.406c-0.113-1.255-0.691-2.113-1.092-2.568c-0.399-0.464-0.751-0.929-1.057-1.778
			c-0.214-0.59,0.286-0.799,0.767-0.451c1.757,1.258,3.78,3.39,4.472,6.109c0.105,0.404,0.396,0.353,0.375-0.01
			c-0.183-2.337-1.92-5.188-4.041-6.938c-0.876-0.736-2.045-1.655-2.372-3.245c-0.337-1.584,0.192-2.797,1.045-4.275
			c0.855-1.476,0.909-3.93-0.111-6.989c-0.815-2.441-1.99-3.651-3.196-4.257v-0.005c-0.04-0.047-0.126-0.082-0.235-0.12
			c-1.05-0.459-2.099-0.5-2.918-0.552c-1.829-0.1-3.343-0.256-4.51-1.753c-0.478-0.613-1.506-2.228-3.23-3.834"/>
		<path clip-path="url(#SVGID_2_)" fill="#002D5B" d="M45.209,33.588l-0.803,0.18c-1.346,0.205-2.588,0.623-3.679,1.24
			c-0.018,0.01-0.009,0.008-0.009,0.008l-0.014,0.004l-0.023,0.012c-0.654,0.381-1.234,0.82-1.724,1.313
			c-0.438,0.436-0.946,0.638-1.423,0.807c-2.486,0.887-5.766,2.738-7.266,6.531c-0.078,0.198,0.005,0.368,0.131,0.428
			c0.136,0.07,0.297,0.017,0.384-0.125c1.537-2.518,4.192-4.542,7.105-5.418c0.235-0.07,0.43-0.053,0.582,0.053
			c0.171,0.112,0.288,0.342,0.314,0.619c0.113,1.132,0.189,2.042,0.006,2.655c-0.131,0.453-0.313,0.896-0.492,1.329l-0.221,0.548
			c-0.224,0.555-0.423,1.485-0.324,2.414c0,0.003,0.039,0.348,0.039,0.348c0.185,1.597,0.413,3.576-0.664,5.465
			c-0.146,0.258-0.076,0.439,0.028,0.521c0.112,0.085,0.314,0.104,0.539-0.108c1.515-1.446,1.565-3.695,1.399-5.908
			c-0.055-0.75,0.084-1.503,0.367-2.027c0.842-1.568,1.252-2.605,1.175-3.909c0-0.003-0.042-0.864-0.042-0.864l-0.083-1.32
			c-0.057-0.533,0.083-0.948,0.44-1.308c0.474-0.468,1.485-1.063,2.298-1.208c0.495-0.088,0.762,0.158,1.032,0.59
			c1.299,2.099,2.712,3.217,4.949,4.069c0.782,0.301,1.059,0.61,0.939,1.49l-0.011,0.095c-0.107,0.811-0.175,1.587-0.964,2.31
			c-1.525,1.371-2.489,2.808-2.943,4.345c-0.143,0.473-0.495,1.007-1.229,1.194c-1.69,0.43-2.907,1.418-3.509,2.585
			c-0.45,0.865-0.492,1.839-0.118,2.815l0.269,0.696c0.568,1.482,0.855,2.22,1.172,3.564c0.35,1.523,1.013,3.908,1.594,5.539
			c0.854,2.401,1.893,4.55,2.787,5.743c0.187,0.25,0.39,0.25,0.509,0.18c0.135-0.085,0.215-0.308,0.068-0.586
			c-1.113-2.087-2.283-5.365-2.768-7.332c-0.019-0.087-0.001-0.186,0.05-0.245c0.039-0.042,0.096-0.062,0.167-0.054
			c0.937,0.097,3.275,0.699,4.95,1.472c0.236,0.108,0.442,0.017,0.519-0.133c0.074-0.144,0.044-0.363-0.2-0.505
			c-1.739-0.99-4.238-1.924-5.485-2.175c-0.271-0.057-0.414-0.447-0.482-0.774l-0.181-0.83c-0.319-1.481-0.677-3.167-1.361-4.893
			c-0.407-1.009-0.186-1.774,0.713-2.483c0.475-0.383,1.604-0.766,2.04-0.742c0.105,0.002,0.187,0.026,0.263,0.066
			c0.038,0.035,0.141,0.132,0.181,0.168c0.058,0.083,0.096,0.173,0.129,0.298c0.311,1.224,1.029,2.592,1.828,3.482
			c0.754,0.837,1.188,1.577,1.41,2.401c0.128,0.454,0.372,0.447,0.441,0.438c0.07-0.009,0.299-0.087,0.27-0.558
			c-0.058-0.877-0.522-2.021-1.187-2.921c-0.705-0.943-1.289-2.165-1.451-3.046c-0.151-0.866-0.033-1.589,0.205-2.471
			c0.453-1.632,1.663-3.137,2.665-3.903c1.21-0.921,1.861-2.453,1.739-4.085c-0.012-0.147,0.067-0.248,0.153-0.272
			c0.103-0.028,0.105,0.044,0.189,0.207c0.877,1.815,1.78,3.324,3.069,4.142c1.57,0.999,2.607,2.173,2.615,3.479
			c0.006,1.104-0.398,2.175-1.551,2.921c-3.928,2.555-3.203,5.948-1.904,8.343c0.678,1.245,1.135,1.869,1.58,2.472l0.048,0.068
			c0.42,0.561,0.479,1.215,0.17,1.844c-1.023,2.052-0.984,4.188,0.114,5.717c0.668,0.94,1.225,1.876,1.483,2.51
			c0.168,0.388,0.401,0.463,0.55,0.406c0.144-0.047,0.27-0.237,0.163-0.59c-0.261-0.913-0.802-1.889-1.197-2.607L57.6,70.08
			c-0.568-1.06-0.409-2.974-0.049-3.829l0.502-1.118l0.216-0.466c0.073-0.175,0.198-0.307,0.316-0.326
			c0.08-0.014,0.157,0.023,0.234,0.111c0.673,0.73,1.225,1.931,1.585,2.718l0.074,0.153c0.395,0.847,1.017,1.225,1.624,1.506
			c1.08,0.501,2.447,1.353,2.833,2.545c0.104,0.305,0.301,0.371,0.44,0.331c0.18-0.044,0.279-0.252,0.231-0.478
			c-0.319-1.479-1.346-2.192-2.64-3.098l-0.144-0.097c-0.807-0.565-1.114-0.825-1.394-1.542c-0.002,0-0.319-0.831-0.319-0.831
			c-0.463-1.265-0.866-2.359-1.936-2.966l-0.644-0.336c-0.457-0.223-0.786-0.388-1.095-0.768c-1.343-1.684-2.031-3.368-1.936-4.749
			c0.089-1.238,0.963-2.48,2.401-3.4c1.618-1.042,2.535-2.635,2.452-4.266c-0.005-0.132,0.032-0.233,0.12-0.302
			c0.115-0.099,0.313-0.135,0.514-0.087c2.113,0.484,3.382,1.824,3.762,3.979c0.062,0.329,0.267,0.447,0.447,0.421
			c0.188-0.028,0.372-0.228,0.342-0.551c-0.126-1.137-0.409-3.796-3.259-4.962c-0.307-0.2-0.548-0.297-0.722-0.29
			c-0.007,0-0.115,0.005-0.148,0.005c-0.048-0.01-0.56-0.126-0.56-0.126c-0.008,0-0.207-0.033-0.207-0.033
			c-0.398-0.06-0.742-0.115-0.969-0.528c-0.743-1.38-1.861-2.162-2.75-2.689c-0.957-0.577-1.697-1.741-2.355-2.913
			c-0.671-1.19-1.341-2.187-2.807-2.311c-2.388-0.173-4.237-1.122-5.489-2.812c-0.042-0.062-0.066-0.128-0.066-0.193
			c0-0.04,0.008-0.08,0.031-0.117c0.055-0.104,0.177-0.154,0.345-0.146c3.375,0.187,5.299,0.851,7.096,2.447
			c1.302,1.15,2.15,2.361,2.972,3.527c1.52,2.17,3.717,2.465,5.868,2.457c2.146-0.007,3.835,0.665,5.095,3.956
			c0.954,2.52,0.929,4.474-0.084,5.975c-1.065,1.586-1.407,3.498-0.951,5.397c0.129,0.537,0.159,0.947,0.192,1.383
			c0.032,0.408,0.063,0.825,0.182,1.358c0.252,1.097,0.94,2.28,1.992,3.405c0.694,0.743,0.921,1.324,1.126,2.205
			c0.193,0.82,0.492,1.762,1.225,2.574c0.156,0.163,0.38,0.187,0.528,0.069c0.12-0.104,0.176-0.319,0.009-0.542
			c-0.025-0.038-0.637-0.867-0.77-2.326c-0.112-1.257-0.675-2.141-1.13-2.658c-0.362-0.423-0.717-0.874-1.025-1.723
			c-0.062-0.168-0.053-0.303,0.02-0.359c0.083-0.062,0.281-0.047,0.491,0.098c1.054,0.758,3.597,2.852,4.406,6.012
			c0.086,0.341,0.286,0.433,0.432,0.411c0.15-0.03,0.293-0.182,0.275-0.471c-0.184-2.312-1.869-5.218-4.103-7.059l0,0l-0.098-0.076
			c-0.85-0.714-1.91-1.596-2.217-3.069c-0.067-0.322-0.1-0.62-0.1-0.912c0-1.063,0.42-2.017,1.128-3.243
			c0.452-0.78,0.675-1.772,0.675-2.923c0-1.238-0.26-2.661-0.774-4.206c-0.723-2.167-1.783-3.581-3.241-4.331
			c-0.011-0.008-0.149-0.358-0.149-0.358c-1.012-0.448-2.168-0.68-2.979-0.728l-0.13-0.01c-1.877-0.103-3.295,0.092-4.384-1.308
			l-0.347-0.47c-0.563-0.779-1.509-2.087-2.903-3.385c-0.513-0.487-1.12-0.934-1.803-1.333c-0.056-0.074-0.167-0.139-0.622-0.335
			c-0.762-0.384-1.61-0.702-2.519-0.937c-0.285-0.092-0.676-0.208-0.865-0.23l0,0c-0.002,0-0.853-0.095-0.853-0.095
			c0.006,0-1.059-0.088-1.059-0.088C46.244,33.55,45.596,33.542,45.209,33.588z M40.906,35.291c1.043-0.587,2.25-0.994,3.572-1.193
			c0.023-0.004,0.772-0.176,0.772-0.176c0.364-0.043,0.994-0.033,1.916,0.035c0.003,0.001,1.045,0.091,1.045,0.091
			c0.002,0,0.846,0.093,0.846,0.093c0.125,0.013,0.422,0.093,0.811,0.221c0.896,0.23,1.721,0.537,2.469,0.911
			c0.118,0.053,0.453,0.199,0.507,0.248l0.007,0.008l0.047,0.034l-0.032-0.021l0.003,0.003l0.052,0.046
			c0.667,0.388,1.255,0.823,1.755,1.296c1.371,1.275,2.301,2.564,2.858,3.335l0.354,0.479c1.18,1.514,2.665,1.708,4.633,1.817l0,0
			l0.127,0.007c0.785,0.051,1.762,0.105,2.732,0.535c0.016,0.006,0.179,0.077,0.179,0.077l0.048,0.039
			c1.393,0.702,2.412,2.064,3.111,4.165c0.497,1.49,0.749,2.887,0.749,4.095c0,1.096-0.21,2.042-0.624,2.757
			c-0.736,1.274-1.176,2.274-1.176,3.395c0,0.325,0.037,0.654,0.111,1c0.329,1.585,1.441,2.511,2.333,3.256l0.1,0.078
			c2.167,1.787,3.802,4.594,3.978,6.82c0,0.012,0,0.023,0,0.031c0,0.007-0.006,0.007-0.006,0.023
			c-0.014-0.023-0.026-0.055-0.038-0.102c-0.837-3.269-3.452-5.425-4.538-6.201c-0.317-0.223-0.665-0.261-0.89-0.091
			c-0.067,0.053-0.193,0.178-0.193,0.422c0,0.09,0.014,0.198,0.058,0.32c0.328,0.901,0.718,1.399,1.092,1.827
			c0.422,0.479,0.945,1.3,1.047,2.47c0.113,1.241,0.578,2.155,0.837,2.491c0.026,0.04,0.028,0.063,0.032,0.078
			c-0.01-0.003-0.028-0.003-0.051-0.028c-0.68-0.756-0.963-1.654-1.147-2.423c-0.212-0.917-0.465-1.566-1.208-2.358
			c-1.01-1.087-1.668-2.21-1.907-3.25c-0.113-0.508-0.146-0.915-0.176-1.309c-0.032-0.431-0.063-0.877-0.2-1.442
			c-0.128-0.521-0.187-1.044-0.187-1.562c0-1.267,0.37-2.493,1.089-3.564c0.557-0.829,0.839-1.781,0.839-2.876
			c0-1.009-0.241-2.144-0.719-3.409c-1.139-2.973-2.704-4.18-5.411-4.172c-2.059,0.008-4.161-0.267-5.59-2.312
			c-0.833-1.183-1.695-2.409-3.027-3.587c-1.836-1.632-3.885-2.34-7.302-2.528c-0.299-0.021-0.54,0.097-0.66,0.315
			c-0.046,0.085-0.071,0.184-0.071,0.28c0,0.133,0.045,0.271,0.134,0.391c1.296,1.75,3.278,2.77,5.731,2.954
			c1.301,0.107,1.919,1.032,2.539,2.136c0.682,1.214,1.457,2.419,2.475,3.036c0.907,0.54,1.927,1.263,2.627,2.562
			c0.31,0.56,0.791,0.638,1.218,0.698l0.188,0.032l0.596,0.141h0.026l0.175-0.01c0.039-0.005,0.182,0.017,0.543,0.246
			c2.376,0.978,2.888,2.925,3.078,4.704c0.003,0.015,0.003,0.028,0.003,0.04c0,0.098-0.043,0.136-0.053,0.14
			c-0.008-0.004-0.048-0.035-0.068-0.144c-0.51-2.874-2.467-3.895-4.019-4.249c-0.304-0.073-0.608-0.016-0.808,0.151
			c-0.154,0.126-0.234,0.316-0.234,0.53c0,0.02,0,0.036,0,0.05c0.002,0.06,0.002,0.126,0.002,0.183c0,1.449-0.847,2.85-2.3,3.779
			c-1.53,0.985-2.46,2.316-2.559,3.663c-0.006,0.094-0.008,0.187-0.008,0.276c0,1.414,0.709,3.067,2.019,4.703
			c0.354,0.446,0.751,0.643,1.21,0.867l0.623,0.326c0.965,0.549,1.348,1.588,1.791,2.787l0.316,0.841
			c0.311,0.791,0.684,1.113,1.516,1.692l0.146,0.097c1.283,0.898,2.211,1.541,2.502,2.895c0,0.006,0,0.013,0.002,0.016
			c-0.01-0.016-0.015-0.022-0.026-0.049c-0.421-1.307-1.866-2.214-3.008-2.739c-0.515-0.237-1.095-0.563-1.458-1.346l-0.072-0.151
			c-0.375-0.812-0.939-2.035-1.645-2.811c-0.155-0.168-0.348-0.243-0.539-0.21c-0.237,0.042-0.451,0.235-0.571,0.521l-0.21,0.462
			l-0.508,1.129c-0.208,0.491-0.349,1.276-0.349,2.087c0,0.732,0.12,1.479,0.415,2.028l0.132,0.24
			c0.387,0.702,0.917,1.662,1.17,2.54c0.019,0.053,0.021,0.099,0.023,0.132c-0.028-0.033-0.063-0.09-0.102-0.176
			c-0.269-0.651-0.838-1.614-1.522-2.581c-0.528-0.728-0.791-1.621-0.791-2.571c0-0.897,0.233-1.853,0.705-2.793
			c0.152-0.316,0.23-0.639,0.23-0.955c0-0.428-0.143-0.855-0.428-1.24l-0.052-0.068c-0.437-0.594-0.887-1.208-1.554-2.433
			c-1.233-2.271-1.922-5.488,1.792-7.896c1.25-0.816,1.936-1.938,1.929-3.161c-0.008-1.425-0.93-2.794-2.601-3.859
			C55,44.633,53.85,43.229,53,41.477c-0.183-0.381-0.477-0.458-0.688-0.398c-0.239,0.065-0.402,0.298-0.402,0.568
			c0,0.017,0,0.034,0.003,0.052c0.009,0.12,0.012,0.241,0.012,0.365c0,1.378-0.588,2.641-1.619,3.425
			c-1.047,0.803-2.312,2.374-2.786,4.091c-0.173,0.638-0.286,1.195-0.286,1.787c0,0.269,0.023,0.539,0.075,0.825
			c0.169,0.929,0.779,2.212,1.509,3.188c0.631,0.851,1.072,1.926,1.122,2.743c0.003,0.017,0.003,0.04,0.003,0.055
			c0,0.03-0.005,0.045-0.005,0.066c-0.017-0.033-0.035-0.066-0.045-0.116c-0.239-0.874-0.694-1.663-1.485-2.531
			c-0.755-0.842-1.459-2.186-1.752-3.341c-0.046-0.168-0.102-0.303-0.183-0.417l-0.008-0.019l-0.028-0.021l-0.219-0.206
			l-0.025-0.017c-0.125-0.075-0.27-0.11-0.427-0.113c-0.503-0.016-1.71,0.381-2.26,0.813c-0.697,0.553-1.04,1.153-1.04,1.849
			c0,0.318,0.077,0.663,0.223,1.032c0.673,1.696,1.032,3.365,1.346,4.838l0.181,0.832c0.135,0.609,0.387,0.96,0.746,1.028
			c1.193,0.242,3.699,1.174,5.382,2.134c0.043,0.03,0.05,0.045,0.053,0.059c-0.013,0-0.035-0.004-0.06-0.019
			c-1.779-0.815-4.118-1.403-5.06-1.501c-0.179-0.019-0.343,0.045-0.454,0.173c-0.093,0.102-0.143,0.246-0.143,0.39
			c0,0.052,0.008,0.106,0.021,0.156c0.487,1.987,1.668,5.301,2.794,7.406c0.021,0.038,0.021,0.06,0.025,0.088
			c-0.01-0.012-0.02-0.02-0.032-0.036c-0.876-1.172-1.898-3.285-2.74-5.659c-0.575-1.612-1.235-3.99-1.585-5.497
			c-0.321-1.376-0.609-2.118-1.183-3.609l-0.269-0.701c-0.155-0.397-0.231-0.797-0.231-1.189c0-0.471,0.111-0.929,0.334-1.35
			c0.553-1.08,1.791-1.933,3.386-2.337c0.871-0.217,1.373-0.95,1.537-1.502c0.439-1.478,1.374-2.841,2.849-4.17
			c0.882-0.803,1.007-1.74,1.117-2.566l0.015-0.096c0.016-0.146,0.028-0.286,0.028-0.417c0-0.777-0.363-1.257-1.157-1.563
			c-2.229-0.851-3.765-1.739-5.02-3.767c-0.276-0.44-0.657-0.874-1.377-0.743c-0.891,0.158-1.958,0.784-2.475,1.299
			c-0.372,0.371-0.555,0.803-0.555,1.325c0,0.085,0.003,0.172,0.015,0.26l0.082,1.295l0.042,0.872
			c0.005,0.095,0.008,0.19,0.008,0.283c0,1.097-0.396,2.052-1.142,3.449c-0.27,0.49-0.423,1.17-0.423,1.868
			c0,0.112,0.007,0.226,0.014,0.339c0.038,0.502,0.063,1.007,0.063,1.502c0,1.601-0.279,3.104-1.359,4.138
			c-0.028,0.03-0.033,0.025-0.053,0.037c0.006-0.014,0.001-0.019,0.012-0.04c0.68-1.187,0.867-2.398,0.867-3.537
			c0-0.75-0.084-1.474-0.159-2.131l-0.04-0.347c-0.014-0.145-0.022-0.296-0.022-0.452c0-0.613,0.115-1.278,0.326-1.802
			c0-0.001,0.22-0.543,0.22-0.543c0.181-0.436,0.369-0.893,0.501-1.361c0.09-0.301,0.123-0.656,0.123-1.062
			c0-0.501-0.05-1.079-0.117-1.724c-0.034-0.381-0.205-0.693-0.459-0.867c-0.163-0.111-0.451-0.216-0.867-0.092
			c-2.827,0.851-5.406,2.763-7.016,5.152c1.525-3.388,4.546-5.102,6.869-5.927c0.493-0.177,1.06-0.404,1.548-0.892
			c0.472-0.469,1.03-0.893,1.655-1.257l-0.04,0.017L40.906,35.291z M65.798,42.899l0.007,0.002l-0.046-0.028
			C65.773,42.879,65.787,42.891,65.798,42.899z"/>
		<g clip-path="url(#SVGID_2_)">
			<path fill="#FFFFFF" d="M41.732,65.913c-0.668-0.213-1.01-0.62-1.692-1.504c-0.093-0.019-0.253-0.17-0.508-0.323
				c-0.463-0.271-1.172-1.238-1.423-1.456c-0.244-0.215-1.706-1.184-1.936-1.262c-1.499-0.531-1.933-2.007-2.292-2.55l-0.028-0.043
				l0,0c-0.375-0.586-0.794-1.226-1.217-1.884l0,0c0.064,0.102-0.599-0.919-0.76-1.146c0-0.005-0.005-0.007-0.005-0.014
				c-0.133-0.2-0.75-0.581-0.705-0.323c0.046,0.252,0.323,0.971,0.492,1.158c0.162,0.188,0.746,1.192,0.801,1.495
				c0.052,0.296,0.762,1.253,0.947,1.556h-0.003c0.52,0.867,0.954,1.633,1.229,2.2c0.429,0.896,0.59,1.26,0.792,2.155
				c0.258,1.137,0.768,2.744,1.285,3.623c0.096,0.158,0.175,0.21,0.202,0.191c0.033-0.015,0.068-0.128,0-0.319
				c-0.487-1.408-0.924-3.563-1.037-4.219c-0.06-0.297-0.018-0.486,0.111-0.576c0.148-0.108,0.389-0.047,0.742,0.145
				c0.84,0.498,1.785,1.337,2.588,2.313c0.429,0.536,1.177,1.205,2.255,1.387c0.166,0.028,0.269-0.028,0.292-0.092
				c0-0.015,0-0.028,0-0.038C41.849,66.316,41.883,65.97,41.732,65.913z"/>
		</g>
		<use xlink:href="#SVGID_1_"  overflow="visible" fill="none" stroke="#002D5B" stroke-width="0.6143"/>
	</g>
</g>
</svg>
